<?xml version="1.0" encoding="UTF-8" standalone="no"?>
<!-- Created with Inkscape (http://www.inkscape.org/) -->

<svg
   xmlns:dc="http://purl.org/dc/elements/1.1/"
   xmlns:cc="http://creativecommons.org/ns#"
   xmlns:rdf="http://www.w3.org/1999/02/22-rdf-syntax-ns#"
   xmlns:svg="http://www.w3.org/2000/svg"
   xmlns="http://www.w3.org/2000/svg"
   xmlns:sodipodi="http://sodipodi.sourceforge.net/DTD/sodipodi-0.dtd"
   xmlns:inkscape="http://www.inkscape.org/namespaces/inkscape"
   width="186.49609"
   height="141.66348"
   id="svg2"
   version="1.1"
   inkscape:version="0.48.5 r10040"
   sodipodi:docname="elementosclasicos.pdf">
  <sodipodi:namedview
     id="base"
     pagecolor="#ffffff"
     bordercolor="#666666"
     borderopacity="1.0"
     inkscape:pageopacity="0.0"
     inkscape:pageshadow="2"
     inkscape:zoom="5.6"
     inkscape:cx="128.99785"
     inkscape:cy="89.739347"
     inkscape:document-units="px"
     inkscape:current-layer="layer1"
     showgrid="true"
     inkscape:snap-grids="false"
     inkscape:window-width="1920"
     inkscape:window-height="1058"
     inkscape:window-x="-8"
     inkscape:window-y="-8"
     inkscape:window-maximized="1"
     fit-margin-top="0"
     fit-margin-left="0"
     fit-margin-right="0"
     fit-margin-bottom="0">
    <inkscape:grid
       id="grid2985"
       type="xygrid"
       empspacing="5"
       visible="true"
       enabled="true"
       snapvisiblegridlinesonly="true"
       originx="-166.28516px"
       originy="-794.95594px" />
  </sodipodi:namedview>
  <defs
     id="defs4">
    <marker
       style="overflow:visible"
       id="Arrow2Lend"
       refX="0"
       refY="0"
       orient="auto"
       inkscape:stockid="Arrow2Lend">
      <path
         transform="matrix(-1.1,0,0,-1.1,-1.1,0)"
         d="M 8.7185878,4.0337352 -2.2072895,0.01601326 8.7185884,-4.0017078 c -1.7454984,2.3720609 -1.7354408,5.6174519 -6e-7,8.035443 z"
         style="fill-rule:evenodd;stroke-width:0.625;stroke-linejoin:round"
         id="path3914"
         inkscape:connector-curvature="0" />
    </marker>
    <marker
       style="overflow:visible"
       id="Arrow1Mend"
       refX="0"
       refY="0"
       orient="auto"
       inkscape:stockid="Arrow1Mend">
      <path
         transform="matrix(-0.4,0,0,-0.4,-4,0)"
         style="fill-rule:evenodd;stroke:#000000;stroke-width:1pt"
         d="M 0,0 5,-5 -12.5,0 5,5 0,0 z"
         id="path3902"
         inkscape:connector-curvature="0" />
    </marker>
    <marker
       style="overflow:visible"
       id="Arrow1Mendr"
       refX="0"
       refY="0"
       orient="auto"
       inkscape:stockid="Arrow1Mendr">
      <path
         transform="matrix(-0.4,0,0,-0.4,-4,0)"
         style="fill:#aa0000;fill-rule:evenodd;stroke:#aa0000;stroke-width:1pt"
         d="M 0,0 5,-5 -12.5,0 5,5 0,0 z"
         id="path6792"
         inkscape:connector-curvature="0" />
    </marker>
  </defs>
  <metadata
     id="metadata7">
    <rdf:RDF>
      <cc:Work
         rdf:about="">
        <dc:format>image/svg+xml</dc:format>
        <dc:type
           rdf:resource="http://purl.org/dc/dcmitype/StillImage" />
        <dc:title></dc:title>
      </cc:Work>
    </rdf:RDF>
  </metadata>
  <g
     id="layer1"
     inkscape:groupmode="layer"
     inkscape:label="Capa 1"
     transform="translate(-166.28516,-115.74276)">
    <path
       inkscape:connector-curvature="0"
       id="path2991"
       d="m 260,192.36218 20,65"
       style="fill:none;stroke:#000000;stroke-width:0.3779645;stroke-linecap:butt;stroke-linejoin:miter;stroke-opacity:1" />
    <path
       transform="matrix(0.71884544,-0.58742634,0.53153633,0.79443061,-62.559511,190.09237)"
       d="m 340,207.36218 a 70,35 0 1 1 -140,0 70,35 0 1 1 140,0 z"
       sodipodi:ry="35"
       sodipodi:rx="70"
       sodipodi:cy="207.36218"
       sodipodi:cx="270"
       id="path3767"
       style="fill:none;stroke:#a60000;stroke-width:1;stroke-miterlimit:4;stroke-opacity:1;stroke-dasharray:none"
       sodipodi:type="arc" />
    <path
       id="path3830"
       d="m 349.71073,237.21922 c -25.3194,6.38725 -56.27902,10.14296 -89.71073,10.14296 -33.41921,0 -64.36819,-3.75291 -89.68235,-10.1358"
       style="fill:none;stroke:#000000;stroke-width:0.25;stroke-miterlimit:4;stroke-opacity:1;stroke-dasharray:none"
       inkscape:connector-curvature="0" />
    <path
       id="path3794"
       d="m 170.28928,237.21922 c 0,0 0,0 0,0"
       style="fill:none;stroke:#a60000;stroke-width:1;stroke-miterlimit:4;stroke-opacity:1;stroke-dasharray:none"
       inkscape:connector-curvature="0" />
    <path
       style="fill:none;stroke:#000000;stroke-width:0.77512854;stroke-linecap:butt;stroke-linejoin:miter;stroke-opacity:1"
       d="m 259.88756,192.24974 92.72488,46.65345"
       id="path3802"
       inkscape:connector-curvature="0" />
    <path
       inkscape:connector-curvature="0"
       id="path3810"
       d="m 260.11685,192.24533 -91.30513,46.30513"
       style="fill:none;stroke:#000000;stroke-width:0.7662949px;stroke-linecap:butt;stroke-linejoin:miter;stroke-opacity:1" />
    <path
       inkscape:connector-curvature="0"
       id="path3812"
       d="m 260,192.36218 0,-72.34061"
       style="fill:none;stroke:#000000;stroke-width:0.77642673px;stroke-linecap:butt;stroke-linejoin:miter;stroke-opacity:1" />
    <path
       id="path3885"
       d="m 267.99262,218.23088 c -2.46655,0.32994 -5.01636,0.50291 -7.6258,0.50291 -12.91093,0 -24.36192,-4.23438 -31.49179,-10.76493 -0.0112,-0.0102 -0.0223,-0.0205 -0.0335,-0.0307 l 0,0 0,0"
       style="fill:none;stroke:#000000;stroke-width:0.5;stroke-miterlimit:4;stroke-opacity:1;stroke-dasharray:none"
       inkscape:connector-curvature="0" />
    <path
       inkscape:connector-curvature="0"
       id="path3887"
       d="m 268.20912,218.08163 44.5686,-9.14984"
       style="fill:none;stroke:#000000;stroke-width:0.59681255;stroke-linecap:butt;stroke-linejoin:miter;stroke-opacity:1;marker-end:url(#Arrow1Mend)" />
    <path
       inkscape:connector-curvature="0"
       id="path6546"
       d="m 282.05535,202.21325 c 0.45021,3.88824 0.73395,8.23094 0.80852,12.83559"
       style="fill:none;stroke:#000000;stroke-width:0.5;stroke-miterlimit:4;stroke-opacity:1;stroke-dasharray:none" />
    <path
       style="fill:#aa0000;stroke:#aa0000;stroke-width:0.59009618;stroke-linecap:butt;stroke-linejoin:miter;stroke-miterlimit:4;stroke-opacity:1;stroke-dasharray:none;marker-end:url(#Arrow1Mendr)"
       d="m 267.67007,217.72783 41.39398,-46.20461"
       id="path6553"
       inkscape:connector-curvature="0" />
    <path
       inkscape:connector-curvature="0"
       id="path6558"
       d="m 259.98801,192.21729 22.22336,-44.32044"
       style="fill:none;stroke:#000000;stroke-width:0.5;stroke-linecap:butt;stroke-linejoin:miter;stroke-opacity:1" />
    <path
       transform="matrix(0.84709612,-0.05781016,0.19008728,1.0537561,-21.655233,14.05309)"
       d="m 227.53686,176.93874 c 0,0.41841 -0.36746,0.75761 -0.82075,0.75761 -0.45329,0 -0.82075,-0.3392 -0.82075,-0.75761 0,-0.41842 0.36746,-0.75762 0.82075,-0.75762 0.45329,0 0.82075,0.3392 0.82075,0.75762 z"
       sodipodi:ry="0.75761443"
       sodipodi:rx="0.82074893"
       sodipodi:cy="176.93874"
       sodipodi:cx="226.71611"
       id="path6560"
       style="fill:#000000;stroke:#000000;stroke-width:0.5;stroke-miterlimit:4;stroke-opacity:1;stroke-dasharray:none"
       sodipodi:type="arc" />
    <path
       inkscape:connector-curvature="0"
       id="path6562"
       d="m 261.20985,192.13077 -56.91572,-4.52231"
       style="fill:none;stroke:#000000;stroke-width:0.35313308;stroke-linecap:butt;stroke-linejoin:miter;stroke-opacity:1" />
    <path
       id="path6579"
       d="m 274.98904,200.86397 c -2.51311,4.34953 -5.40111,8.16474 -8.48626,11.23256"
       style="fill:none;stroke:#000000;stroke-width:0.5;stroke-miterlimit:4;stroke-opacity:1;stroke-dasharray:none"
       inkscape:connector-curvature="0" />
    <path
       id="path6574"
       d="m 280.53736,151.25216 c 3.82759,7.06036 4.80366,18.05081 1.96444,30.39574 l 0,0 c -1.60919,6.99677 -4.24383,13.55843 -7.51276,19.21607"
       style="fill:none;stroke:#000000;stroke-width:0.5;stroke-miterlimit:4;stroke-opacity:1;stroke-dasharray:none"
       inkscape:connector-curvature="0" />
    <path
       id="path6599"
       d="m 215.32567,188.66974 c 9.17315,-12.63492 23.86058,-23.31823 42.2253,-29.30479 7.01111,-2.28549 14.07671,-3.72949 21.01255,-4.39136 0.029,-0.003 0.0578,-0.005 0.0867,-0.009"
       style="fill:none;stroke:#000000;stroke-width:0.5;stroke-miterlimit:4;stroke-opacity:1;stroke-dasharray:none"
       inkscape:connector-curvature="0" />
    <text
       xml:space="preserve"
       style="font-size:8px;font-style:normal;font-weight:normal;line-height:3.99999991%;letter-spacing:0px;word-spacing:0px;fill:#000000;fill-opacity:1;stroke:none;font-family:Sans"
       x="282.60986"
       y="145.86183"
       id="text6856"
       sodipodi:linespacing="3.9999999%"><tspan
         sodipodi:role="line"
         id="tspan6858"
         x="282.60986"
         y="145.86183">Perigeo</tspan></text>
    <text
       xml:space="preserve"
       style="font-size:8px;font-style:normal;font-weight:normal;line-height:3.99999991%;letter-spacing:0px;word-spacing:0px;fill:#000000;fill-opacity:1;stroke:none;font-family:Sans"
       x="197.51268"
       y="187.63329"
       id="text6860"
       sodipodi:linespacing="3.9999999%"><tspan
         sodipodi:role="line"
         id="tspan6862"
         x="197.51268"
         y="187.63329">P</tspan></text>
    <text
       xml:space="preserve"
       style="font-size:8px;font-style:normal;font-weight:normal;line-height:3.99999991%;letter-spacing:0px;word-spacing:0px;fill:#000000;fill-opacity:1;stroke:none;font-family:Sans"
       x="166.25"
       y="231.46931"
       id="text6864"
       sodipodi:linespacing="3.9999999%"><tspan
         sodipodi:role="line"
         id="tspan6866"
         x="166.25"
         y="231.46931">X</tspan></text>
    <text
       xml:space="preserve"
       style="font-size:8px;font-style:normal;font-weight:normal;line-height:3.99999991%;letter-spacing:0px;word-spacing:0px;fill:#000000;fill-opacity:1;stroke:none;font-family:Sans"
       x="344.10715"
       y="229.86218"
       id="text6868"
       sodipodi:linespacing="3.9999999%"><tspan
         sodipodi:role="line"
         id="tspan6870"
         x="344.10715"
         y="229.86218">Y</tspan></text>
    <text
       xml:space="preserve"
       style="font-size:8px;font-style:normal;font-weight:normal;line-height:3.99999991%;letter-spacing:0px;word-spacing:0px;fill:#000000;fill-opacity:1;stroke:none;font-family:Sans"
       x="263.03571"
       y="121.46932"
       id="text6872"
       sodipodi:linespacing="3.9999999%"><tspan
         sodipodi:role="line"
         id="tspan6874"
         x="263.03571"
         y="121.46932">Z</tspan></text>
    <text
       xml:space="preserve"
       style="font-size:8px;font-style:normal;font-weight:normal;line-height:3.99999991%;letter-spacing:0px;word-spacing:0px;fill:#000000;fill-opacity:1;stroke:none;font-family:Sans"
       x="284.55356"
       y="209.50504"
       id="text6876"
       sodipodi:linespacing="3.9999999%"><tspan
         sodipodi:role="line"
         id="tspan6878"
         x="284.55356"
         y="209.50504" /></text>
    <text
       xml:space="preserve"
       style="font-size:8px;font-style:normal;font-weight:normal;line-height:3.99999991%;letter-spacing:0px;word-spacing:0px;fill:#000000;fill-opacity:1;stroke:none;font-family:Sans"
       x="239.82143"
       y="221.64789"
       id="text6880"
       sodipodi:linespacing="3.9999999%"><tspan
         sodipodi:role="line"
         id="tspan6882"
         x="239.82143"
         y="221.64789"></tspan><tspan
         sodipodi:role="line"
         x="239.82143"
         y="221.9679"
         id="tspan6884" /></text>
    <text
       xml:space="preserve"
       style="font-size:8px;font-style:normal;font-weight:normal;line-height:3.99999991%;letter-spacing:0px;word-spacing:0px;fill:#000000;fill-opacity:1;stroke:none;font-family:Sans"
       x="235.44643"
       y="218.96931"
       id="text6886"
       sodipodi:linespacing="3.9999999%"><tspan
         sodipodi:role="line"
         id="tspan6888"
         x="235.44643"
         y="218.96931"></tspan><tspan
         sodipodi:role="line"
         x="235.44643"
         y="219.28932"
         id="tspan6890" /></text>
    <text
       xml:space="preserve"
       style="font-size:8px;font-style:normal;font-weight:normal;line-height:3.99999991%;letter-spacing:0px;word-spacing:0px;fill:#000000;fill-opacity:1;stroke:none;font-family:Sans"
       x="288.29657"
       y="206.38486"
       id="text6892"
       sodipodi:linespacing="3.9999999%"><tspan
         sodipodi:role="line"
         id="tspan6894"
         x="288.29657"
         y="206.38486">i</tspan></text>
    <text
       xml:space="preserve"
       style="font-size:8px;font-style:normal;font-weight:normal;line-height:3.99999991%;letter-spacing:0px;word-spacing:0px;fill:#000000;fill-opacity:1;stroke:none;font-family:Sans"
       x="295.9747"
       y="232.49712"
       id="text6896"
       sodipodi:linespacing="3.9999999%"><tspan
         sodipodi:role="line"
         id="tspan6898"
         x="295.9747"
         y="232.49712"></tspan><tspan
         sodipodi:role="line"
         x="295.9747"
         y="232.81712"
         id="tspan6900" /></text>
    <text
       xml:space="preserve"
       style="font-size:8px;font-style:normal;font-weight:normal;line-height:3.99999991%;letter-spacing:0px;word-spacing:0px;fill:#000000;fill-opacity:1;stroke:none;font-family:Sans"
       x="236.3757"
       y="223.15321"
       id="text6902"
       sodipodi:linespacing="3.9999999%"><tspan
         sodipodi:role="line"
         id="tspan6904"
         x="236.3757"
         y="223.15321">Ω</tspan></text>
    <text
       xml:space="preserve"
       style="font-size:8px;font-style:normal;font-weight:normal;line-height:3.99999991%;letter-spacing:0px;word-spacing:0px;fill:#000000;fill-opacity:1;stroke:none;font-family:Sans"
       x="276.7818"
       y="174.28708"
       id="text6906"
       sodipodi:linespacing="3.9999999%"><tspan
         sodipodi:role="line"
         id="tspan6908"
         x="276.7818"
         y="174.28708">ω</tspan></text>
    <text
       xml:space="preserve"
       style="font-size:8px;font-style:normal;font-weight:normal;line-height:3.99999991%;letter-spacing:0px;word-spacing:0px;fill:#000000;fill-opacity:1;stroke:none;font-family:Sans"
       x="249.23718"
       y="160.94589"
       id="text6910"
       sodipodi:linespacing="3.9999999%"><tspan
         sodipodi:role="line"
         id="tspan6912"
         x="249.23718"
         y="160.94589">θ</tspan></text>
    <path
       sodipodi:type="arc"
       style="fill:#aa0000;stroke:#a80000;stroke-width:0.25;stroke-miterlimit:4;stroke-opacity:1;stroke-dasharray:none"
       id="path6914"
       sodipodi:cx="282.1875"
       sodipodi:cy="147.67468"
       sodipodi:rx="0.71428573"
       sodipodi:ry="1.0267857"
       d="m 282.90179,147.67468 c 0,0.56708 -0.3198,1.02679 -0.71429,1.02679 -0.39449,0 -0.71429,-0.45971 -0.71429,-1.02679 0,-0.56708 0.3198,-1.02678 0.71429,-1.02678 0.39449,0 0.71429,0.4597 0.71429,1.02678 z"
       transform="matrix(1.49375,0,0,1,-139.15597,0)" />
    <path
       style="fill:#ffccaa;stroke:none;stroke-width:0.04464286000000000;stroke-miterlimit:4;stroke-opacity:1;stroke-dasharray:none"
       d="m 276.97018,246.5002 c -0.33891,-0.89077 -8.6055,-27.94245 -8.55601,-27.99875 0.0339,-0.0385 6.83023,-1.45978 15.10302,-3.15834 l 15.04143,-3.08829 24.90013,12.52534 c 22.19432,11.16427 24.84389,12.54061 24.38256,12.66575 -1.87608,0.50891 -7.45268,1.72166 -12.48184,2.71443 -14.28875,2.82065 -29.0878,4.75399 -45.17858,5.90212 -8.67478,0.61898 -13.08614,0.76515 -13.21071,0.43774 z"
       id="path6918"
       inkscape:connector-curvature="0" />
    <path
       style="fill:#ffccaa;stroke:none;stroke-width:0.04464286000000000;stroke-miterlimit:4;stroke-opacity:1;stroke-dasharray:none"
       d="m 252.41304,247.03294 c -9.79192,-0.14891 -15.79211,-0.43882 -27.5,-1.32872 -4.95618,-0.37671 -4.94233,-0.3701 -2.21484,-1.05669 11.35943,-2.85951 23.84611,-9.29312 35.33984,-18.2084 2.52205,-1.95628 8.02488,-6.62627 8.82577,-7.49002 0.2381,-0.2568 0.53374,-0.4669 0.65697,-0.4669 0.12323,0 0.34842,0.42188 0.50041,0.9375 0.152,0.51563 2.1119,6.89562 4.35534,14.17777 l 4.07898,13.24026 -3.76231,0.11008 c -6.014,0.17595 -12.51349,0.20323 -20.28016,0.0851 z"
       id="path6920"
       inkscape:connector-curvature="0" />
    <path
       style="fill:#ffccaa;stroke:none;stroke-width:0.04464286000000000;stroke-miterlimit:4;stroke-opacity:1;stroke-dasharray:none"
       d="m 214.19875,244.69406 c -1.95177,-0.19904 -10.45009,-1.30012 -13.55954,-1.75683 -1.83843,-0.27002 -2.58933,-0.46293 -3.21429,-0.82575 -3.05068,-1.77108 -5.75204,-4.87422 -7.15731,-8.22184 -0.43415,-1.0342 -0.94698,-2.79861 -1.31218,-4.51457 -0.0918,-0.43142 0.58169,-0.78965 20.02573,-10.65169 l 20.12075,-10.20527 0.98592,0.803 c 2.9927,2.43746 8.14378,5.24037 12.23592,6.65807 6.25438,2.16679 13.49624,3.17613 20.53572,2.86219 1.375,-0.0613 2.51834,-0.102 2.54077,-0.0904 0.10337,0.0535 -5.66928,4.90298 -7.97537,6.69992 -13.52935,10.54224 -28.83436,17.71577 -41.26183,19.33961 -0.24554,0.0321 -1.12947,-0.0113 -1.96429,-0.0965 z m 24.82143,-21.83057 c 0,-0.25662 -0.14814,-0.51943 -0.35529,-0.63029 -0.54302,-0.29061 -0.89471,-1.13523 -0.89471,-2.14871 0,-0.77373 0.0808,-0.99628 0.52198,-1.43744 0.70179,-0.70179 1.46854,-0.70179 2.17033,0 0.44116,0.44116 0.52198,0.66371 0.52198,1.43744 0,1.01348 -0.35169,1.8581 -0.89471,2.14871 -0.20715,0.11086 -0.35529,0.37367 -0.35529,0.63029 0,0.42267 0.0461,0.44015 1.16071,0.44015 1.11905,0 1.16071,-0.016 1.16071,-0.44643 0,-0.38243 -0.0813,-0.44643 -0.56684,-0.44643 l -0.56684,0 0.37554,-0.40178 c 0.55973,-0.59885 0.83131,-1.87761 0.5895,-2.77565 -0.70465,-2.61687 -4.30734,-2.64605 -5.00892,-0.0406 -0.24524,0.91075 -0.11086,1.82979 0.38569,2.63766 l 0.35672,0.58035 -0.461,0 c -0.37267,0 -0.46099,0.0855 -0.46099,0.44643 0,0.4304 0.0417,0.44643 1.16072,0.44643 1.11462,0 1.16071,-0.0175 1.16071,-0.44015 z"
       id="path6922"
       inkscape:connector-curvature="0" />
    <path
       style="fill:#ffccaa;stroke:none;stroke-width:0.04464286000000000;stroke-miterlimit:4;stroke-opacity:1;stroke-dasharray:none"
       d="m 255.09161,218.28842 c -9.19041,-0.90739 -17.74941,-4.03098 -23.92327,-8.73075 -0.78863,-0.60033 -1.43387,-1.1511 -1.43387,-1.22394 0,-0.13295 30.03496,-15.41179 30.12308,-15.32367 0.0258,0.0258 1.70107,5.42012 3.7227,11.98728 l 3.6757,11.94028 -0.71645,0.71645 -0.71645,0.71645 -4.51751,0.0427 c -2.48462,0.0235 -5.2809,-0.0327 -6.21393,-0.1248 z"
       id="path6924"
       inkscape:connector-curvature="0" />
    <path
       style="fill:#ffccaa;stroke:none;stroke-width:0.04464286000000000;stroke-miterlimit:4;stroke-opacity:1;stroke-dasharray:none"
       d="m 266.25748,211.68266 c -0.36735,-0.96642 -5.61901,-18.27112 -5.56219,-18.32794 0.0604,-0.0604 13.99296,6.82647 14.19937,7.01874 0.11472,0.10686 -1.72118,3.04581 -3.16902,5.07304 -2.3349,3.26926 -5.30735,6.65919 -5.46816,6.23616 z"
       id="path6926"
       inkscape:connector-curvature="0" />
    <path
       style="fill:#ffccaa;stroke:none;stroke-width:0.04464286000000000;stroke-miterlimit:4;stroke-opacity:1;stroke-dasharray:none"
       d="m 267.06268,214.37098 -0.59648,-1.96837 1.32761,-1.37984 c 2.17935,-2.2651 4.69869,-5.61543 6.67734,-8.87984 0.47624,-0.78572 0.88251,-1.45354 0.90282,-1.48405 0.0203,-0.0305 1.0467,0.45163 2.28088,1.07143 l 2.24396,1.1269 -1.00985,1.33929 c -2.91969,3.87216 -10.5264,12.14285 -11.16801,12.14285 -0.034,0 -0.33021,-0.88576 -0.65827,-1.96837 z"
       id="path6930"
       inkscape:connector-curvature="0" />
    <path
       style="fill:#ffccaa;stroke:none;stroke-width:0.04464286000000000;stroke-miterlimit:4;stroke-opacity:1;stroke-dasharray:none"
       d="m 271.64298,214.24114 c 3.49814,-3.66459 6.56325,-7.21246 9.27717,-10.73832 0.0291,-0.0378 0.28596,0.0279 0.57085,0.14587 0.45144,0.187 0.53211,0.33345 0.628,1.14011 0.21673,1.8233 0.63192,9.94479 0.50834,9.94383 -0.0294,-2.3e-4 -3.1894,0.64244 -7.02211,1.42815 -3.83272,0.78572 -7.01128,1.42857 -7.06347,1.42857 -0.0522,0 1.34335,-1.50669 3.10122,-3.34821 z"
       id="path6932"
       inkscape:connector-curvature="0" />
    <path
       style="fill:#ffccaa;stroke:none;stroke-width:0.04464286000000000;stroke-miterlimit:4;stroke-opacity:1;stroke-dasharray:none"
       d="m 282.88097,211.384 c -0.0667,-1.74331 -0.20577,-4.04041 -0.30899,-5.10468 -0.10322,-1.06427 -0.14861,-1.97411 -0.10086,-2.02186 0.0478,-0.0478 3.39889,1.59796 7.44698,3.65713 5.00768,2.54729 7.25328,3.77563 7.02576,3.84308 -0.55224,0.16371 -13.45923,2.79597 -13.70976,2.79597 -0.17678,0 -0.26062,-0.75258 -0.35313,-3.16964 z"
       id="path6934"
       inkscape:connector-curvature="0" />
    <path
       style="fill:#ffccaa;stroke:none;stroke-width:0.04464286000000000;stroke-miterlimit:4;stroke-opacity:1;stroke-dasharray:none"
       d="m 192.23447,241.60524 c -5.32635,-0.89704 -19.34733,-3.82043 -19.88441,-4.14592 -0.14073,-0.0853 15.11371,-7.90568 15.42081,-7.90568 0.0755,0 0.19372,0.37606 0.26265,0.83569 0.20474,1.36532 1.12896,3.97209 1.96668,5.54703 1.01206,1.90273 2.06199,3.25435 3.75907,4.83923 0.75269,0.70293 1.25993,1.26851 1.12722,1.25685 -0.13272,-0.0117 -1.32613,-0.2039 -2.65202,-0.4272 z"
       id="path6936"
       inkscape:connector-curvature="0" />
  </g>
</svg>
