<?xml version="1.0" encoding="UTF-8" standalone="no"?>
<!-- Created with Inkscape (http://www.inkscape.org/) -->

<svg
   xmlns:dc="http://purl.org/dc/elements/1.1/"
   xmlns:cc="http://creativecommons.org/ns#"
   xmlns:rdf="http://www.w3.org/1999/02/22-rdf-syntax-ns#"
   xmlns:svg="http://www.w3.org/2000/svg"
   xmlns="http://www.w3.org/2000/svg"
   xmlns:sodipodi="http://sodipodi.sourceforge.net/DTD/sodipodi-0.dtd"
   xmlns:inkscape="http://www.inkscape.org/namespaces/inkscape"
   width="253.26974"
   height="215.39404"
   id="svg2"
   version="1.1"
   inkscape:version="0.48.5 r10040"
   sodipodi:docname="Documento nuevo 1">
  <defs
     id="defs4" />
  <sodipodi:namedview
     id="base"
     pagecolor="#ffffff"
     bordercolor="#666666"
     borderopacity="1.0"
     inkscape:pageopacity="0.0"
     inkscape:pageshadow="2"
     inkscape:zoom="2.8"
     inkscape:cx="202.70676"
     inkscape:cy="141.52321"
     inkscape:document-units="px"
     inkscape:current-layer="layer1"
     showgrid="false"
     inkscape:snap-object-midpoints="true"
     fit-margin-top="0"
     fit-margin-left="0"
     fit-margin-right="0"
     fit-margin-bottom="0"
     inkscape:window-width="1920"
     inkscape:window-height="1058"
     inkscape:window-x="-8"
     inkscape:window-y="-8"
     inkscape:window-maximized="1" />
  <metadata
     id="metadata7">
    <rdf:RDF>
      <cc:Work
         rdf:about="">
        <dc:format>image/svg+xml</dc:format>
        <dc:type
           rdf:resource="http://purl.org/dc/dcmitype/StillImage" />
        <dc:title></dc:title>
      </cc:Work>
    </rdf:RDF>
  </metadata>
  <g
     inkscape:label="Capa 1"
     inkscape:groupmode="layer"
     id="layer1"
     transform="translate(-204.8192,-83.005035)">
    <path
       sodipodi:type="arc"
       style="fill:none;stroke:#53a9d5;stroke-width:3;stroke-linecap:butt;stroke-miterlimit:4;stroke-opacity:1;stroke-dasharray:none;stroke-dashoffset:0"
       id="path2985"
       sodipodi:cx="350.52292"
       sodipodi:cy="190.70206"
       sodipodi:rx="106.06602"
       sodipodi:ry="106.06602"
       d="m 456.58894,190.70206 c 0,58.57864 -47.48738,106.06601 -106.06602,106.06601 -58.57865,0 -106.06602,-47.48737 -106.06602,-106.06601 0,-58.57865 47.48737,-106.06602 106.06602,-106.06602 58.57864,0 106.06602,47.48737 106.06602,106.06602 z" />
    <path
       style="fill:none;stroke:#53a9d5;stroke-width:3;stroke-linecap:butt;stroke-miterlimit:4;stroke-opacity:1;stroke-dasharray:none;stroke-dashoffset:0"
       d="m 349.98898,84.64535 c 0.1777,-0.0062 0.35568,-0.0093 0.53394,-0.0093 22.03673,0 39.90104,47.48737 39.90104,106.06601 l 0,0 0,0 c 0,58.57864 -17.86431,106.06601 -39.90104,106.06601 -0.0736,0 -0.14725,-5.3e-4 -0.22081,-0.002"
       id="path3780"
       inkscape:connector-curvature="0" />
    <path
       sodipodi:type="arc"
       style="fill:none;stroke:#53a9d5;stroke-width:3;stroke-linecap:butt;stroke-miterlimit:4;stroke-opacity:1;stroke-dasharray:none;stroke-dashoffset:0"
       id="path3761"
       sodipodi:cx="350.52292"
       sodipodi:cy="190.70206"
       sodipodi:rx="22.728447"
       sodipodi:ry="104.55078"
       d="m 373.25137,190.70206 c 0,57.7418 -10.17588,104.55078 -22.72845,104.55078 -12.55258,0 -22.72845,-46.80898 -22.72845,-104.55078 0,-57.74181 10.17587,-104.550784 22.72845,-104.550784 12.55257,0 22.72845,46.808974 22.72845,104.550784 z" />
    <path
       sodipodi:type="arc"
       style="fill:none;stroke:#53a9d5;stroke-width:3;stroke-linecap:butt;stroke-miterlimit:4;stroke-opacity:1;stroke-dasharray:none;stroke-dashoffset:0"
       id="path3763"
       sodipodi:cx="350.52292"
       sodipodi:cy="190.70206"
       sodipodi:rx="8.0812349"
       sodipodi:ry="103.03555"
       d="m 358.60415,190.70206 c 0,56.90496 -3.61809,103.03555 -8.08123,103.03555 -4.46314,0 -8.08124,-46.13059 -8.08124,-103.03555 0,-56.90497 3.6181,-103.035556 8.08124,-103.035556 4.46314,0 8.08123,46.130586 8.08123,103.035556 z" />
    <path
       sodipodi:type="arc"
       style="fill:none;stroke:#53a9d5;stroke-width:3;stroke-linecap:butt;stroke-miterlimit:4;stroke-opacity:1;stroke-dasharray:none;stroke-dashoffset:0"
       id="path3765"
       sodipodi:cx="350.52292"
       sodipodi:cy="190.70206"
       sodipodi:rx="105.56096"
       sodipodi:ry="25.758894"
       d="m 456.08388,190.70206 c 0,14.22624 -47.26125,25.75889 -105.56096,25.75889 -58.29971,0 -105.56096,-11.53265 -105.56096,-25.75889 0,-14.22625 47.26125,-25.7589 105.56096,-25.7589 58.29971,0 105.56096,11.53265 105.56096,25.7589 z" />
    <path
       sodipodi:type="arc"
       style="fill:none;stroke:#53a9d5;stroke-width:3;stroke-linecap:butt;stroke-miterlimit:4;stroke-opacity:1;stroke-dasharray:none;stroke-dashoffset:0"
       id="path3767"
       sodipodi:cx="350.52292"
       sodipodi:cy="190.70206"
       sodipodi:rx="74.751305"
       sodipodi:ry="104.55078"
       d="m 425.27422,190.70206 c 0,57.7418 -33.4673,104.55078 -74.7513,104.55078 -41.28401,0 -74.75131,-46.80898 -74.75131,-104.55078 0,-57.74181 33.4673,-104.550784 74.75131,-104.550784 41.284,0 74.7513,46.808974 74.7513,104.550784 z" />
    <path
       sodipodi:type="arc"
       style="fill:none;stroke:#53a9d5;stroke-width:3;stroke-linecap:butt;stroke-miterlimit:4;stroke-opacity:1;stroke-dasharray:none;stroke-dashoffset:0"
       id="path3771"
       sodipodi:cx="350.52292"
       sodipodi:cy="190.70206"
       sodipodi:rx="89.903595"
       sodipodi:ry="105.05586"
       d="m 440.42651,190.70206 c 0,58.02075 -40.25121,105.05586 -89.90359,105.05586 -49.65239,0 -89.9036,-47.03511 -89.9036,-105.05586 0,-58.02075 40.25121,-105.055866 89.9036,-105.055866 49.65238,0 89.90359,47.035116 89.90359,105.055866 z" />
    <path
       sodipodi:type="arc"
       style="fill:none;stroke:#53a9d5;stroke-width:3;stroke-linecap:butt;stroke-miterlimit:4;stroke-opacity:1;stroke-dasharray:none;stroke-dashoffset:0"
       id="path3773"
       sodipodi:cx="350.52292"
       sodipodi:cy="190.70206"
       sodipodi:rx="56.619938"
       sodipodi:ry="106.19702"
       d="m 407.14286,190.70206 c 0,58.65099 -25.34961,106.19702 -56.61994,106.19702 -31.27033,0 -56.61994,-47.54603 -56.61994,-106.19702 0,-58.651 25.34961,-106.197025 56.61994,-106.197025 31.27033,0 56.61994,47.546025 56.61994,106.197025 z" />
    <path
       style="fill:none;stroke:#000000;stroke-width:1px;stroke-linecap:butt;stroke-linejoin:miter;stroke-opacity:1"
       d="M 350.52292,190.70206 420,209.86218"
       id="path3775"
       inkscape:connector-curvature="0" />
    <path
       style="fill:none;stroke:#000000;stroke-width:3;stroke-linecap:butt;stroke-miterlimit:4;stroke-opacity:1;stroke-dasharray:none;stroke-dashoffset:0"
       d="m 350.30211,296.76648 c -21.93514,-0.31596 -39.68023,-47.68156 -39.68023,-106.06442 0,-58.1048 17.57646,-105.29703 39.3671,-106.05671"
       id="path3759"
       inkscape:connector-curvature="0" />
    <path
       style="fill:none;stroke:#000000;stroke-width:1px;stroke-linecap:butt;stroke-linejoin:miter;stroke-opacity:1"
       d="M 350.52292,190.70206 312.5,214.1479"
       id="path3782"
       inkscape:connector-curvature="0" />
    <path
       style="fill:none;stroke:#000000;stroke-width:1px;stroke-linecap:butt;stroke-linejoin:miter;stroke-opacity:1"
       d="m 350.52292,190.70206 63.76279,-41.19702"
       id="path3784"
       inkscape:connector-curvature="0" />
    <path
       style="fill:none;stroke:#000000;stroke-width:1;stroke-linecap:butt;stroke-miterlimit:4;stroke-opacity:1;stroke-dasharray:none;stroke-dashoffset:0"
       d="m 365.6638,180.91554 c 0.95,2.98321 1.47906,6.29677 1.47906,9.78652 l 0,0 c 0,1.42242 -0.0879,2.81557 -0.25637,4.16902"
       id="path3808"
       inkscape:connector-curvature="0" />
    <path
       style="fill:none;stroke:#000000;stroke-width:1;stroke-linecap:butt;stroke-miterlimit:4;stroke-opacity:1;stroke-dasharray:none;stroke-dashoffset:0"
       d="m 370.88961,196.03257 c -3.26812,5.17854 -11.15565,8.82961 -20.36669,8.82961 -6.24832,0 -11.88761,-1.68008 -15.88906,-4.37735"
       id="path3788"
       inkscape:connector-curvature="0" />
    <path
       sodipodi:type="arc"
       style="fill:#000000;fill-opacity:1;stroke:#000000;stroke-width:1;stroke-linecap:butt;stroke-miterlimit:4;stroke-opacity:1;stroke-dasharray:none;stroke-dashoffset:0"
       id="path3810"
       sodipodi:cx="413.57144"
       sodipodi:cy="149.86218"
       sodipodi:rx="1.7857143"
       sodipodi:ry="1.7857143"
       d="m 415.35716,149.86218 c 0,0.98623 -0.7995,1.78572 -1.78572,1.78572 -0.98622,0 -1.78571,-0.79949 -1.78571,-1.78572 0,-0.98622 0.79949,-1.78571 1.78571,-1.78571 0.98622,0 1.78572,0.79949 1.78572,1.78571 z" />
    <text
       xml:space="preserve"
       style="font-size:12px;font-style:normal;font-weight:normal;line-height:3.99999991%;letter-spacing:0px;word-spacing:0px;fill:#000000;fill-opacity:1;stroke:none;font-family:Sans"
       x="370.35715"
       y="187.36218"
       id="text3812"
       sodipodi:linespacing="3.9999999%"><tspan
         sodipodi:role="line"
         id="tspan3814"
         x="370.35715"
         y="187.36218">Latitud</tspan></text>
    <text
       xml:space="preserve"
       style="font-size:12px;font-style:normal;font-weight:normal;line-height:3.99999991%;letter-spacing:0px;word-spacing:0px;fill:#000000;fill-opacity:1;stroke:none;font-family:Sans"
       x="336.42856"
       y="212.36218"
       id="text3816"
       sodipodi:linespacing="3.9999999%"><tspan
         sodipodi:role="line"
         id="tspan3818"
         x="336.42856"
         y="212.36218">Longitud</tspan></text>
    <text
       xml:space="preserve"
       style="font-size:12px;font-style:normal;font-weight:normal;line-height:3.99999991%;letter-spacing:0px;word-spacing:0px;fill:#000000;fill-opacity:1;stroke:none;font-family:Sans"
       x="203.92857"
       y="96.647896"
       id="text3820"
       sodipodi:linespacing="3.9999999%"><tspan
         sodipodi:role="line"
         id="tspan3822"
         x="203.92857"
         y="96.647896">Meridiano de greenwich</tspan></text>
    <text
       xml:space="preserve"
       style="font-size:12px;font-style:normal;font-weight:normal;line-height:3.99999991%;letter-spacing:0px;word-spacing:0px;fill:#000000;fill-opacity:1;stroke:none;font-family:Sans"
       x="418.57144"
       y="148.07648"
       id="text3824"
       sodipodi:linespacing="3.9999999%"><tspan
         sodipodi:role="line"
         id="tspan3826"
         x="418.57144"
         y="148.07648">P</tspan></text>
  </g>
</svg>
