<?xml version="1.0" encoding="UTF-8" standalone="no"?>
<!-- Created with Inkscape (http://www.inkscape.org/) -->

<svg
   xmlns:dc="http://purl.org/dc/elements/1.1/"
   xmlns:cc="http://creativecommons.org/ns#"
   xmlns:rdf="http://www.w3.org/1999/02/22-rdf-syntax-ns#"
   xmlns:svg="http://www.w3.org/2000/svg"
   xmlns="http://www.w3.org/2000/svg"
   xmlns:sodipodi="http://sodipodi.sourceforge.net/DTD/sodipodi-0.dtd"
   xmlns:inkscape="http://www.inkscape.org/namespaces/inkscape"
   width="282.36429"
   height="143.65726"
   id="svg4588"
   version="1.1"
   inkscape:version="0.48.5 r10040"
   sodipodi:docname="Documento nuevo 6">
  <defs
     id="defs3" />
  <sodipodi:namedview
     inkscape:document-units="mm"
     id="base"
     pagecolor="#ffffff"
     bordercolor="#666666"
     borderopacity="1.0"
     inkscape:pageopacity="0.0"
     inkscape:pageshadow="2"
     inkscape:zoom="2.8"
     inkscape:cx="167.15106"
     inkscape:cy="64.64738"
     inkscape:current-layer="layer1"
     showgrid="false"
     units="mm"
     fit-margin-top="0"
     fit-margin-left="0"
     fit-margin-right="0"
     fit-margin-bottom="0"
     inkscape:window-width="1920"
     inkscape:window-height="1058"
     inkscape:window-x="-8"
     inkscape:window-y="-8"
     inkscape:window-maximized="1" />
  <metadata
     id="metadata4">
    <rdf:RDF>
      <cc:Work
         rdf:about="">
        <dc:format>image/svg+xml</dc:format>
        <dc:type
           rdf:resource="http://purl.org/dc/dcmitype/StillImage" />
        <dc:title></dc:title>
      </cc:Work>
    </rdf:RDF>
  </metadata>
  <g
     inkscape:label="Layer 1"
     inkscape:groupmode="layer"
     id="layer1"
     transform="translate(-197.92141,-49.196928)">
    <path
       style="fill:none;stroke:#000000;stroke-width:2;stroke-linecap:butt;stroke-linejoin:miter;stroke-miterlimit:4;stroke-opacity:1;stroke-dasharray:none"
       d="m 235.36554,59.382231 c -1.68358,0.673435 -3.36717,1.34687 -5.05076,2.020305 -0.33672,0.336717 -0.58423,0.797193 -1.01015,1.010152 -0.60234,0.301169 -1.41797,-0.301169 -2.02031,0 -0.85183,0.425918 -1.22787,1.492019 -2.0203,2.020305 -0.62647,0.417647 -1.48791,0.477756 -2.02031,1.010153 -0.23809,0.238095 0.2381,0.772057 0,1.010152 -0.53239,0.532397 -1.48791,0.477756 -2.0203,1.010153 -0.2381,0.238095 0.23809,0.772057 0,1.010152 -1.69951,1.699512 -3.90122,0.295984 -5.05077,2.020306 -0.37355,0.560331 0.37356,1.459973 0,2.020305 -0.41764,0.62647 -1.4879,0.477755 -2.0203,1.010152 -0.2381,0.238095 0.23809,0.772057 0,1.010153 -1.23035,1.230349 -2.25689,0.473178 -3.03046,2.020305 -0.15058,0.301169 0.15059,0.708983 0,1.010152 -0.21296,0.425918 -0.79719,0.584235 -1.01015,1.010153 -0.15059,0.301169 0.15058,0.708983 0,1.010152 -0.21296,0.425918 -0.79719,0.584235 -1.01015,1.010153 -0.30117,0.602339 0.21296,1.381429 0,2.020305 -0.2381,0.714286 -0.82754,1.289862 -1.01016,2.020305 -0.20536,0.821458 0,5.003449 0,6.060915 0,0.45493 -0.15371,2.723034 0,3.030458 0.21296,0.425918 0.7972,0.584235 1.01016,1.010153 0.30117,0.602338 -0.30117,1.417966 0,2.020305 0.21296,0.425917 0.79719,0.584235 1.01015,1.010152 0.30117,0.602339 -0.21296,1.381429 0,2.020305 0.23809,0.714288 0.77206,1.306018 1.01015,2.020308 0.18406,0.55219 0,6.28144 0,7.07107 0,1.1583 0.2616,2.9942 0,4.04061 -0.18261,0.73044 -0.77206,1.30601 -1.01015,2.0203 -0.10648,0.31944 0,0.67344 0,1.01015 0,0.5644 0.19871,4.45465 0,5.05077 -0.2381,0.71428 -0.59251,1.39383 -1.01015,2.0203 -0.26415,0.39622 -0.85957,0.5584 -1.01016,1.01015 -0.21295,0.63888 0.21296,1.38143 0,2.02031 -0.15058,0.45175 -0.67343,0.67343 -1.01015,1.01015 -0.33672,0.67344 -0.82754,1.28986 -1.01015,2.02031 -0.16333,0.65332 0.21296,1.38142 0,2.0203 -0.15059,0.45176 -0.74601,0.61394 -1.01015,1.01015 -0.41765,0.62647 -0.77206,1.30602 -1.01016,2.02031 -0.21295,0.63888 0.30117,1.41797 0,2.0203 -0.42591,0.85184 -1.59438,1.16847 -2.0203,2.02031 -0.15059,0.30117 0.15058,0.70898 0,1.01015 -0.21296,0.42592 -0.85957,0.5584 -1.01015,1.01015 -0.21296,0.63888 0.30117,1.41797 0,2.02031 -0.15059,0.30117 -0.77206,-0.2381 -1.01016,0 -0.23809,0.23809 0,0.67343 0,1.01015 0,0.97705 0.1498,5.76132 0,6.06092 -0.21295,0.42591 -0.79719,0.58423 -1.01015,1.01015 -0.15371,0.30742 0,2.57553 0,3.03046 0,0.36575 -0.17694,5.35316 0,6.06091 0.73242,2.92968 0.7881,1.18215 2.02031,3.03046 0.41764,0.62647 0.5925,1.39384 1.01015,2.02031 0.28544,0.42816 2.61251,2.82148 3.03046,3.03045 0.30117,0.15059 0.70898,-0.15058 1.01015,0 0.85183,0.42592 1.16847,1.59439 2.0203,2.02031 0.30117,0.15058 0.69072,-0.10648 1.01016,0 0.71428,0.23809 1.30602,0.77206 2.0203,1.01015 0.31944,0.10648 0.77206,-0.23809 1.01015,0 0.2381,0.2381 -0.30116,0.85957 0,1.01015 0.60234,0.30117 1.38143,-0.21296 2.02031,0 0.45175,0.15059 0.5584,0.85957 1.01015,1.01016 4.5985,0 0.0578,-0.47619 3.03046,1.01015 0.30117,0.15058 0.77206,-0.2381 1.01015,0 1.34687,1.34687 -2.14285,0.9693 1.01015,2.0203 0.63888,0.21296 1.38143,-0.21296 2.02031,0 0.90351,0.30117 1.16847,1.59439 2.02031,2.02031 0.30116,0.15058 0.70898,-0.15059 1.01015,0 3.35025,3.35025 -0.95238,-0.47619 2.0203,1.01015 0.42592,0.21296 0.5584,0.85957 1.01016,1.01015 0.63887,0.21296 1.45997,-0.37355 2.0203,0 0.62647,0.41765 0.47776,1.48791 1.01015,2.02031 9.7e-4,9.6e-4 3.02588,-0.002 3.03046,0 0.45175,0.15058 0.61394,0.74601 1.01015,1.01015 0.62647,0.41765 1.39384,0.59251 2.02031,1.01015 0.39621,0.26415 0.58423,0.7972 1.01015,1.01016 0.30117,0.15058 0.68349,-0.0817 1.01015,0 2.73424,-1.71683 2.61204,1.54411 4.04061,2.0203 0.63888,0.21296 1.35995,-0.13207 2.02031,0 2.90772,0.58155 5.1735,2.44891 8.08122,3.03046 0.66036,0.13207 1.34687,0 2.0203,0 0.67344,0.33672 1.28987,0.82754 2.02031,1.01015 0.65333,0.16333 1.38143,-0.21296 2.0203,0 0.45176,0.15059 0.5584,0.85957 1.01016,1.01015 0.95831,0.31944 2.0203,0 3.03045,0 3.36718,0 6.73435,0 10.10153,0 1.68359,0 3.36717,0 5.05076,0 0.67344,0 1.41797,0.30117 2.02031,0 0.30117,-0.15058 -0.15059,-0.70898 0,-1.01015 0.21296,-0.42592 0.79719,-0.58423 1.01015,-1.01015 0.15058,-0.30117 -0.15058,-0.70898 0,-1.01015 0.21296,-0.42592 0.79719,-0.58424 1.01015,-1.01016 0.15059,-0.30117 -0.15058,-0.70898 0,-1.01015 0.21296,-0.42592 0.7972,-0.58423 1.01016,-1.01015 0.30116,-0.60234 -0.30117,-1.41797 0,-2.02031 0.42591,-0.85183 1.59438,-1.16847 2.0203,-2.0203 1.48634,-2.97269 -2.3401,1.32995 1.01015,-2.02031 0.33672,-0.33671 0.67344,-0.67343 1.01016,-1.01015 0.33671,-0.33672 0.79719,-0.58423 1.01015,-1.01015 0.30117,-0.60234 -0.60234,-1.71914 0,-2.02031 0.60234,-0.30117 1.41796,0.30117 2.0203,0 0.30117,-0.15058 -0.23809,-0.77205 0,-1.01015 0.2381,-0.23809 0.77206,0.2381 1.01016,0 0.53239,-0.5324 0.47775,-1.48791 1.01015,-2.0203 0.23809,-0.2381 0.67343,0 1.01015,0 0.67344,0 1.45997,0.37355 2.02031,0 0.62647,-0.41765 0.47775,-1.48791 1.01015,-2.02031 4.8898,-4.8898 -0.76043,2.19054 4.04061,-1.01015 0.62647,-0.41765 0.38368,-1.60266 1.01015,-2.02031 0.56033,-0.37355 1.38143,0.21296 2.02031,0 0.12916,-0.043 3.99755,-3.91144 4.04061,-4.04061 0,-4.5985 -0.47619,-0.0578 1.01015,-3.03045 0.20026,-0.40052 -0.20651,-2.82395 0,-3.03046 0.23809,-0.2381 0.77206,0.23809 1.01015,0 1.16074,-1.16074 1.01015,-1.78648 1.01015,-3.03046 0,-0.33672 -0.10648,-0.69071 0,-1.01015 0.2381,-0.71429 0.59251,-1.39384 1.01016,-2.02031 0.26414,-0.39621 0.85956,-0.5584 1.01015,-1.01015 0.40697,-1.22092 -0.40697,-2.81969 0,-4.04061 0.15058,-0.45175 0.85957,-0.5584 1.01015,-1.01015 0,-4.59851 -0.47619,-0.0578 1.01015,-3.03046 0.30117,-0.60234 -0.30117,-1.41797 0,-2.02031 0.21296,-0.42591 0.74601,-0.61393 1.01016,-1.01015 0.41764,-0.62647 0.67343,-1.34687 1.01015,-2.0203 0.33672,-0.67344 0.77206,-1.30602 1.01015,-2.02031 0.31944,-0.95831 -0.31944,-2.07214 0,-3.03046 0.15059,-0.45175 0.7972,-0.58423 1.01015,-1.01015 0.15059,-0.30117 -0.10648,-0.69071 0,-1.01015 0.2381,-0.71429 0.77206,-1.30602 1.01016,-2.02031 0.21134,-0.63402 0,-3.2274 0,-4.04061 0,-2.35702 0,-4.71404 0,-7.07106 0,-1.68359 0,-3.36718 0,-5.05077 0,-0.67343 0,-1.34687 0,-2.0203 0,-0.33672 0.15058,-0.70899 0,-1.01015 -0.21296,-0.42592 -0.7972,-0.58424 -1.01016,-1.01016 -0.15058,-0.30117 0.2381,-0.77205 0,-1.01015 -0.23809,-0.2381 -0.77205,0.2381 -1.01015,0 -0.47619,-0.47619 0.47619,-1.54411 0,-2.0203 -1.34687,-1.34687 -1.01015,1.68358 -1.01015,-1.01016 0,-2.69374 0,-5.387478 0,-8.081218 0,-0.673435 0,-1.34687 0,-2.020305 0,-0.336717 -0.15059,-0.708983 0,-1.010152 2.31154,-4.623072 -0.41868,4.286498 2.0203,-3.030458 0.21193,-0.635789 0,-4.140247 0,-5.050763 0,-0.528229 0.13281,-3.774999 0,-4.04061 -0.42591,-0.851835 -1.59438,-1.16847 -2.0203,-2.020305 -0.15059,-0.301169 0.15058,-0.708983 0,-1.010153 -0.42592,-0.851835 -1.71914,-1.116797 -2.02031,-2.020305 -0.21295,-0.638876 0.21296,-1.381428 0,-2.020305 -0.15058,-0.451754 -0.74601,-0.613938 -1.01015,-1.010152 -0.41765,-0.62647 -0.5925,-1.393835 -1.01015,-2.020305 -0.52829,-0.792429 -1.49202,-1.227877 -2.02031,-2.020306 -0.41764,-0.62647 -0.5925,-1.393835 -1.01015,-2.020305 -0.26414,-0.396214 -0.79719,-0.584234 -1.01015,-1.010152 -0.15059,-0.301169 0.15058,-0.708983 0,-1.010153 -0.42592,-0.851835 -1.49202,-1.227876 -2.02031,-2.020305 -0.33671,-0.673435 -0.67343,-1.34687 -1.01015,-2.020305 0,-0.336717 0.15059,-0.708983 0,-1.010152 -1.11675,-2.233503 -0.62694,-0.313472 -2.0203,-1.010153 -4.20402,-2.102006 1.07989,0.06974 -1.01016,-2.020305 -0.23809,-0.238095 -0.70898,0.150585 -1.01015,0 -0.42592,-0.212959 -0.58423,-0.797194 -1.01015,-1.010153 -0.30117,-0.150584 -0.77206,0.238096 -1.01015,0 -0.2381,-0.238095 0,-0.673435 0,-1.010152 -0.33672,0 -0.77206,0.238095 -1.01016,0 -0.23809,-0.238095 0.2381,-0.772057 0,-1.010153 -0.33519,-0.335197 -1.6851,0.335198 -2.0203,0 -0.2381,-0.238095 0.23809,-0.772057 0,-1.010152 -0.50508,-0.505077 -2.52538,0.505076 -3.03046,0 -0.23809,-0.238096 0.2381,-0.772058 0,-1.010153 -0.24307,-0.243074 -3.79754,0.243074 -4.04061,0 -0.23809,-0.238095 0.2381,-0.772057 0,-1.010152 -0.0325,-0.03249 -2.78547,0 -3.03046,0 -3.36717,0 -6.73435,0 -10.10152,0 -0.81321,0 -3.40659,-0.211342 -4.04061,0 -0.71429,0.238095 -1.28986,0.827541 -2.02031,1.010152 -0.76818,0.192047 -4.20487,0 -5.05076,0 -0.33672,0 -0.67344,0 -1.01015,0 -0.33672,0 -0.70899,-0.150584 -1.01016,0 -0.42591,0.212959 -0.58423,0.797194 -1.01015,1.010153 -0.57989,0.289947 -4.19091,-0.214964 -5.05076,0 -0.73044,0.18261 -1.30602,0.772057 -2.02031,1.010152 -0.63579,0.21193 -4.14024,0 -5.05076,0 -0.33672,0 -0.77206,-0.238095 -1.01015,0 -0.2381,0.238096 0.23809,0.772058 0,1.010153 -0.2764,0.2764 -3.49262,-0.273998 -4.04061,0 -0.42592,0.212959 -0.58424,0.797193 -1.01015,1.010152 -0.30117,0.150585 -0.77206,-0.238095 -1.01016,0 -0.23809,0.238096 0.2381,0.772058 0,1.010153 -0.47619,0.47619 -1.54411,-0.476191 -2.0203,0 -0.2381,0.238095 0.23809,0.772057 0,1.010152 -0.2381,0.238096 -0.77206,-0.238095 -1.01015,0 -0.33546,0.335457 0.33545,1.684849 0,2.020306 -0.2381,0.238095 -0.67344,0 -1.01016,0 -1.34687,0 -2.69374,0 -4.04061,0 z"
       id="path4596"
       inkscape:connector-curvature="0" />
    <path
       sodipodi:type="arc"
       style="fill:#000000;fill-opacity:1;stroke:#000000;stroke-width:2;stroke-linecap:butt;stroke-miterlimit:4;stroke-opacity:1;stroke-dasharray:none;stroke-dashoffset:0"
       id="path4598"
       sodipodi:cx="242.5"
       sodipodi:cy="113.79076"
       sodipodi:rx="6.7857141"
       sodipodi:ry="6.7857141"
       d="m 249.28571,113.79076 c 0,3.74764 -3.03806,6.78571 -6.78571,6.78571 -3.74765,0 -6.78571,-3.03807 -6.78571,-6.78571 0,-3.74765 3.03806,-6.78572 6.78571,-6.78572 3.74765,0 6.78571,3.03807 6.78571,6.78572 z"
       transform="matrix(0.44954127,0,0,0.44954127,136.70053,70.494258)" />
    <path
       sodipodi:type="arc"
       style="fill:#fc0f0f;fill-opacity:1;stroke:#ff0000;stroke-width:2;stroke-linecap:butt;stroke-miterlimit:4;stroke-opacity:1;stroke-dasharray:none;stroke-dashoffset:0"
       id="path5108"
       sodipodi:cx="265.89285"
       sodipodi:cy="85.397896"
       sodipodi:rx="1.25"
       sodipodi:ry="1.25"
       d="m 267.14285,85.397896 c 0,0.690356 -0.55964,1.25 -1.25,1.25 -0.69035,0 -1.25,-0.559644 -1.25,-1.25 0,-0.690356 0.55965,-1.25 1.25,-1.25 0.69036,0 1.25,0.559644 1.25,1.25 z"
       transform="translate(6.7857143,8.2142857)" />
    <path
       sodipodi:type="arc"
       style="fill:#000000;fill-opacity:1;stroke:#000000;stroke-width:2;stroke-linecap:butt;stroke-miterlimit:4;stroke-opacity:1;stroke-dasharray:none;stroke-dashoffset:0"
       id="path5110"
       sodipodi:cx="459.28571"
       sodipodi:cy="87.719322"
       sodipodi:rx="1.4285715"
       sodipodi:ry="1.4285715"
       d="m 460.71428,87.719322 c 0,0.788978 -0.6396,1.428572 -1.42857,1.428572 -0.78898,0 -1.42858,-0.639594 -1.42858,-1.428572 0,-0.788978 0.6396,-1.428571 1.42858,-1.428571 0.78897,0 1.42857,0.639593 1.42857,1.428571 z"
       transform="translate(18.571429,23.571429)" />
    <path
       style="fill:none;stroke:#000000;stroke-width:1px;stroke-linecap:butt;stroke-linejoin:miter;stroke-opacity:1"
       d="M 246.07143,122.36218 478.21429,111.29075"
       id="path5112"
       inkscape:connector-curvature="0" />
    <path
       style="fill:none;stroke:#000000;stroke-width:1px;stroke-linecap:butt;stroke-linejoin:miter;stroke-opacity:1"
       d="M 246.07143,122.00504 272.14286,93.43361"
       id="path5114"
       inkscape:connector-curvature="0" />
    <path
       style="fill:none;stroke:#000000;stroke-width:1px;stroke-linecap:butt;stroke-linejoin:miter;stroke-opacity:1"
       d="m 272.14286,93.076467 205,17.857143"
       id="path5116"
       inkscape:connector-curvature="0" />
    <text
       xml:space="preserve"
       style="font-size:12px;font-style:normal;font-weight:normal;line-height:3.99999991%;letter-spacing:0px;word-spacing:0px;fill:#000000;fill-opacity:1;stroke:none;font-family:Sans"
       x="250.35715"
       y="104.50504"
       id="text5118"
       sodipodi:linespacing="3.9999999%"><tspan
         sodipodi:role="line"
         id="tspan5120"
         x="250.35715"
         y="104.50504">s</tspan></text>
    <text
       xml:space="preserve"
       style="font-size:12px;font-style:normal;font-weight:normal;line-height:3.99999991%;letter-spacing:0px;word-spacing:0px;fill:#000000;fill-opacity:1;stroke:none;font-family:Sans"
       x="370.71429"
       y="96.647896"
       id="text5122"
       sodipodi:linespacing="3.9999999%"><tspan
         sodipodi:role="line"
         id="tspan5124"
         x="370.71429"
         y="96.647896">q</tspan></text>
    <text
       xml:space="preserve"
       style="font-size:12px;font-style:normal;font-weight:normal;line-height:3.99999991%;letter-spacing:0px;word-spacing:0px;fill:#000000;fill-opacity:1;stroke:none;font-family:Sans"
       x="370"
       y="126.29075"
       id="text5126"
       sodipodi:linespacing="3.9999999%"><tspan
         sodipodi:role="line"
         id="tspan5128"
         x="370"
         y="126.29075">r</tspan></text>
    <path
       style="fill:none;stroke:#000000;stroke-width:1;stroke-linecap:butt;stroke-miterlimit:4;stroke-opacity:1;stroke-dasharray:none;stroke-dashoffset:0"
       d="m 256.45489,110.5669 c 3.09005,2.72232 5.10187,6.63982 5.31249,11.02955"
       id="path5138"
       inkscape:connector-curvature="0" />
    <text
       xml:space="preserve"
       style="font-size:12px;font-style:normal;font-weight:normal;line-height:3.99999991%;letter-spacing:0px;word-spacing:0px;fill:#000000;fill-opacity:1;stroke:none;font-family:Sans"
       x="266.78571"
       y="116.6479"
       id="text5145"
       sodipodi:linespacing="3.9999999%"><tspan
         sodipodi:role="line"
         id="tspan5147"
         x="266.78571"
         y="116.6479">θ</tspan></text>
    <text
       xml:space="preserve"
       style="font-size:12px;font-style:normal;font-weight:normal;line-height:3.99999991%;letter-spacing:0px;word-spacing:0px;fill:#ff2a2a;fill-opacity:1;stroke:none;font-family:Sans"
       x="263.92856"
       y="89.505035"
       id="text5149"
       sodipodi:linespacing="3.9999999%"><tspan
         sodipodi:role="line"
         id="tspan5151"
         x="263.92856"
         y="89.505035">dM</tspan></text>
    <text
       xml:space="preserve"
       style="font-size:12px;font-style:normal;font-weight:normal;line-height:3.99999991%;letter-spacing:0px;word-spacing:0px;fill:#000000;fill-opacity:1;stroke:none;font-family:Sans"
       x="236.78571"
       y="136.64789"
       id="text5153"
       sodipodi:linespacing="3.9999999%"><tspan
         sodipodi:role="line"
         id="tspan5155"
         x="236.78571"
         y="136.64789">O</tspan></text>
  </g>
</svg>
