<?xml version="1.0" encoding="UTF-8" standalone="no"?>
<!-- Created with Inkscape (http://www.inkscape.org/) -->

<svg
   xmlns:dc="http://purl.org/dc/elements/1.1/"
   xmlns:cc="http://creativecommons.org/ns#"
   xmlns:rdf="http://www.w3.org/1999/02/22-rdf-syntax-ns#"
   xmlns:svg="http://www.w3.org/2000/svg"
   xmlns="http://www.w3.org/2000/svg"
   xmlns:sodipodi="http://sodipodi.sourceforge.net/DTD/sodipodi-0.dtd"
   xmlns:inkscape="http://www.inkscape.org/namespaces/inkscape"
   width="182"
   height="228.43146"
   id="svg2"
   version="1.1"
   inkscape:version="0.48.5 r10040"
   sodipodi:docname="tierraesferica.pdf">
  <sodipodi:namedview
     id="base"
     pagecolor="#ffffff"
     bordercolor="#666666"
     borderopacity="1.0"
     inkscape:pageopacity="0.0"
     inkscape:pageshadow="2"
     inkscape:zoom="2.8"
     inkscape:cx="83.895551"
     inkscape:cy="96.018458"
     inkscape:document-units="px"
     inkscape:current-layer="layer1"
     showgrid="true"
     inkscape:snap-grids="false"
     inkscape:snap-object-midpoints="true"
     inkscape:object-paths="true"
     inkscape:snap-intersection-paths="true"
     inkscape:snap-global="true"
     inkscape:window-width="1920"
     inkscape:window-height="1058"
     inkscape:window-x="-8"
     inkscape:window-y="-8"
     inkscape:window-maximized="1"
     fit-margin-top="0"
     fit-margin-left="0"
     fit-margin-right="0"
     fit-margin-bottom="0">
    <inkscape:grid
       id="grid2985"
       type="xygrid"
       empspacing="5"
       visible="true"
       enabled="true"
       snapvisiblegridlinesonly="true"
       originx="-269px"
       originy="-547.65226px" />
  </sodipodi:namedview>
  <defs
     id="defs4">
    <marker
       style="overflow:visible"
       id="Arrow1Lend"
       refX="0"
       refY="0"
       orient="auto"
       inkscape:stockid="Arrow1Lend">
      <path
         transform="matrix(-0.8,0,0,-0.8,-10,0)"
         style="fill-rule:evenodd;stroke:#000000;stroke-width:1pt"
         d="M 0,0 5,-5 -12.5,0 5,5 0,0 z"
         id="path3788"
         inkscape:connector-curvature="0" />
    </marker>
    <marker
       style="overflow:visible"
       id="Arrow1Sstart"
       refX="0"
       refY="0"
       orient="auto"
       inkscape:stockid="Arrow1Sstart">
      <path
         transform="matrix(0.2,0,0,0.2,1.2,0)"
         style="fill-rule:evenodd;stroke:#000000;stroke-width:1pt"
         d="M 0,0 5,-5 -12.5,0 5,5 0,0 z"
         id="path3797"
         inkscape:connector-curvature="0" />
    </marker>
    <marker
       style="overflow:visible"
       id="Arrow1Mstart"
       refX="0"
       refY="0"
       orient="auto"
       inkscape:stockid="Arrow1Mstart">
      <path
         transform="matrix(0.4,0,0,0.4,4,0)"
         style="fill-rule:evenodd;stroke:#000000;stroke-width:1pt"
         d="M 0,0 5,-5 -12.5,0 5,5 0,0 z"
         id="path3791"
         inkscape:connector-curvature="0" />
    </marker>
    <marker
       style="overflow:visible"
       id="Arrow2Lstart"
       refX="0"
       refY="0"
       orient="auto"
       inkscape:stockid="Arrow2Lstart">
      <path
         transform="matrix(1.1,0,0,1.1,1.1,0)"
         d="M 8.7185878,4.0337352 -2.2072895,0.01601326 8.7185884,-4.0017078 c -1.7454984,2.3720609 -1.7354408,5.6174519 -6e-7,8.035443 z"
         style="fill-rule:evenodd;stroke-width:0.625;stroke-linejoin:round"
         id="path3803"
         inkscape:connector-curvature="0" />
    </marker>
    <marker
       style="overflow:visible"
       id="Arrow2LstartA"
       refX="0"
       refY="0"
       orient="auto"
       inkscape:stockid="Arrow2LstartA">
      <path
         transform="matrix(1.1,0,0,1.1,1.1,0)"
         d="M 8.7185878,4.0337352 -2.2072895,0.01601326 8.7185884,-4.0017078 c -1.7454984,2.3720609 -1.7354408,5.6174519 -6e-7,8.035443 z"
         style="fill:#e20000;fill-rule:evenodd;stroke:#e20000;stroke-width:0.625;stroke-linejoin:round"
         id="path5472"
         inkscape:connector-curvature="0" />
    </marker>
  </defs>
  <metadata
     id="metadata7">
    <rdf:RDF>
      <cc:Work
         rdf:about="">
        <dc:format>image/svg+xml</dc:format>
        <dc:type
           rdf:resource="http://purl.org/dc/dcmitype/StillImage" />
        <dc:title></dc:title>
      </cc:Work>
    </rdf:RDF>
  </metadata>
  <g
     id="layer1"
     inkscape:groupmode="layer"
     inkscape:label="Capa 1"
     transform="translate(-269,-276.27847)">
    <path
       d="m 450,402.36218 c 0,49.70563 -40.29437,90 -90,90 -49.70563,0 -90,-40.29437 -90,-90 0,-49.70562 40.29437,-90 90,-90 49.70563,0 90,40.29438 90,90 z"
       sodipodi:ry="90"
       sodipodi:rx="90"
       sodipodi:cy="402.36218"
       sodipodi:cx="360"
       id="path2987"
       style="fill:none;stroke:#000000;stroke-width:2;stroke-opacity:1"
       sodipodi:type="arc" />
    <path
       inkscape:connector-curvature="0"
       id="path3757"
       d="m 360,503.74972 0,-221.38754"
       style="fill:none;stroke:#000000;stroke-width:1.92041183px;stroke-linecap:butt;stroke-linejoin:miter;stroke-opacity:1" />
    <path
       inkscape:connector-curvature="0"
       id="path3759"
       d="M 360.13874,402.22344 290.2184,442.54017"
       style="fill:none;stroke:#000000;stroke-width:0.72251612px;stroke-linecap:butt;stroke-linejoin:miter;stroke-opacity:1" />
    <path
       inkscape:connector-curvature="0"
       id="path3761"
       d="m 359.86094,402.22312 69.86243,40.27813"
       style="fill:none;stroke:#000000;stroke-width:0.72187102px;stroke-linecap:butt;stroke-linejoin:miter;stroke-opacity:1" />
    <path
       d="m 450.35715,402.36218 c 0,22.68313 -40.45428,41.07143 -90.35715,41.07143 -49.90287,0 -90.35715,-18.3883 -90.35715,-41.07143 0,-22.68312 40.45428,-41.07143 90.35715,-41.07143 49.90287,0 90.35715,18.38831 90.35715,41.07143 z"
       sodipodi:ry="41.07143"
       sodipodi:rx="90.357147"
       sodipodi:cy="402.36218"
       sodipodi:cx="360"
       id="path3765"
       style="fill:none;stroke:#000000;stroke-width:1;stroke-miterlimit:4;stroke-opacity:1;stroke-dasharray:none"
       sodipodi:type="arc" />
    <path
       id="path3767"
       d="m 360,492.36218 c -33.13708,0 -60,-40.29437 -60,-90 0,-49.70562 26.86292,-90 60,-90"
       style="fill:none;stroke:#000000;stroke-width:1;stroke-miterlimit:4;stroke-opacity:1;stroke-dasharray:none;stroke-dashoffset:0"
       inkscape:connector-curvature="0" />
    <path
       id="path3779"
       d="m 369.84354,291.60594 c 1.00706,0.74483 1.58503,1.61386 1.58503,2.54195 l 0,0 c 0,2.76142 -5.11674,5 -11.42857,5 -6.31183,0 -11.42857,-2.23858 -11.42857,-5 0,-0.99211 0.66045,-1.91672 1.7995,-2.69429"
       style="fill:none;stroke:#000000;stroke-width:1;stroke-miterlimit:4;stroke-opacity:1;stroke-dasharray:none;stroke-dashoffset:0;marker-start:url(#Arrow1Sstart);marker-end:none"
       inkscape:connector-curvature="0" />
    <path
       id="path4970"
       d="m 360,312.36217 c 0,0 0,0 0,0 20.51343,0 37.14286,40.26801 37.14286,89.94111 l 0,0 c 0,49.67311 -16.62943,89.94111 -37.14286,89.94111 0,0 0,0 0,0"
       style="fill:none;stroke:#000000;stroke-width:1;stroke-miterlimit:4;stroke-opacity:1;stroke-dasharray:1, 1;stroke-dashoffset:0"
       inkscape:connector-curvature="0" />
    <path
       inkscape:connector-curvature="0"
       id="path4972"
       d="m 360,402.30344 33.63799,38.18977"
       style="fill:none;stroke:#000000;stroke-width:1;stroke-linecap:butt;stroke-linejoin:miter;stroke-miterlimit:4;stroke-opacity:1;stroke-dasharray:1, 1;stroke-dashoffset:0" />
    <path
       inkscape:connector-curvature="0"
       id="path4974"
       d="M 360,402.30344 395.51269,375.8686"
       style="fill:none;stroke:#000000;stroke-width:1;stroke-linecap:butt;stroke-linejoin:miter;stroke-miterlimit:4;stroke-opacity:1;stroke-dasharray:1, 1;stroke-dashoffset:0" />
    <path
       id="path4976"
       d="m 375.72692,420.22218 c -4.724,1.38122 -10.06775,2.15961 -15.7268,2.15961 -9.6157,0 -18.32109,-2.24736 -24.62255,-5.88084"
       style="fill:none;stroke:#000000;stroke-width:1;stroke-miterlimit:4;stroke-opacity:1;stroke-dasharray:3, 1;stroke-dashoffset:0"
       inkscape:connector-curvature="0" />
    <path
       id="path4998"
       d="m 384.45422,384.09864 c 0.41081,5.87237 0.62777,11.98534 0.62777,18.26354 l 0,0 c 0,9.42923 -0.4894,18.48575 -1.3899,26.91423"
       style="fill:none;stroke:#000000;stroke-width:1;stroke-miterlimit:4;stroke-opacity:1;stroke-dasharray:3, 1;stroke-dashoffset:0"
       inkscape:connector-curvature="0" />
    <path
       d="m 397.67858,375.86859 c 0,1.19619 -0.9697,2.16589 -2.16588,2.16589 -1.19619,0 -2.16589,-0.9697 -2.16589,-2.16589 0,-1.19618 0.9697,-2.16588 2.16589,-2.16588 1.19618,0 2.16588,0.9697 2.16588,2.16588 z"
       sodipodi:ry="2.1658852"
       sodipodi:rx="2.1658852"
       sodipodi:cy="375.86859"
       sodipodi:cx="395.5127"
       id="path5007"
       style="fill:#000000;stroke:#000000;stroke-width:1;stroke-miterlimit:4;stroke-opacity:1;stroke-dasharray:none;stroke-dashoffset:0"
       sodipodi:type="arc" />
    <text
       sodipodi:linespacing="3.9999999%"
       id="text5009"
       y="282.00504"
       x="365"
       style="font-size:8px;font-style:normal;font-weight:normal;line-height:3.99999991%;letter-spacing:0px;word-spacing:0px;fill:#000000;fill-opacity:1;stroke:none;font-family:Sans"
       xml:space="preserve"><tspan
         y="282.00504"
         x="365"
         id="tspan5011"
         sodipodi:role="line">Eje de giro</tspan></text>
    <text
       sodipodi:linespacing="3.9999999%"
       id="text5013"
       y="379.14789"
       x="400.71429"
       style="font-size:8px;font-style:normal;font-weight:normal;line-height:3.99999991%;letter-spacing:0px;word-spacing:0px;fill:#000000;fill-opacity:1;stroke:none;font-family:Sans"
       xml:space="preserve"><tspan
         y="379.14789"
         x="400.71429"
         id="tspan5015"
         sodipodi:role="line">P</tspan></text>
    <text
       sodipodi:linespacing="3.9999999%"
       id="text5017"
       y="349.14789"
       x="315"
       style="font-size:6px;font-style:normal;font-weight:normal;line-height:3.99999991%;letter-spacing:0px;word-spacing:0px;fill:#000000;fill-opacity:1;stroke:none;font-family:Sans"
       xml:space="preserve"><tspan
         y="349.14789"
         x="315"
         id="tspan5019"
         sodipodi:role="line">Meridiano</tspan><tspan
         id="tspan5021"
         y="349.38788"
         x="315"
         sodipodi:role="line" /></text>
    <text
       sodipodi:linespacing="3.9999999%"
       id="text5023"
       y="353.79074"
       x="322.5"
       style="font-size:6px;font-style:normal;font-weight:normal;line-height:3.99999991%;letter-spacing:0px;word-spacing:0px;fill:#000000;fill-opacity:1;stroke:none;font-family:Sans"
       xml:space="preserve"><tspan
         y="353.79074"
         x="322.5"
         id="tspan5025"
         sodipodi:role="line">de</tspan></text>
    <text
       sodipodi:linespacing="3.9999999%"
       id="text5027"
       y="357.36218"
       x="313.92856"
       style="font-size:6px;font-style:normal;font-weight:normal;line-height:3.99999991%;letter-spacing:0px;word-spacing:0px;fill:#000000;fill-opacity:1;stroke:none;font-family:Sans"
       xml:space="preserve"><tspan
         y="357.36218"
         x="313.92856"
         id="tspan5029"
         sodipodi:role="line">Greenwich</tspan></text>
    <text
       sodipodi:linespacing="3.9999999%"
       id="text5031"
       y="338.07648"
       x="388.57144"
       style="font-size:6px;font-style:normal;font-weight:normal;line-height:3.99999991%;letter-spacing:0px;word-spacing:0px;fill:#000000;fill-opacity:1;stroke:none;font-family:Sans"
       xml:space="preserve"><tspan
         y="338.07648"
         x="388.57144"
         id="tspan5033"
         sodipodi:role="line">Meridiano</tspan></text>
    <text
       sodipodi:linespacing="3.9999999%"
       id="text5035"
       y="342.36218"
       x="394.28571"
       style="font-size:6px;font-style:normal;font-weight:normal;line-height:3.99999991%;letter-spacing:0px;word-spacing:0px;fill:#000000;fill-opacity:1;stroke:none;font-family:Sans"
       xml:space="preserve"><tspan
         y="342.36218"
         x="394.28571"
         id="tspan5037"
         sodipodi:role="line">de P</tspan></text>
    <text
       sodipodi:linespacing="3.9999999%"
       id="text5039"
       y="347.00504"
       x="391.07144"
       style="font-size:6px;font-style:normal;font-weight:normal;line-height:3.99999991%;letter-spacing:0px;word-spacing:0px;fill:#000000;fill-opacity:1;stroke:none;font-family:Sans"
       xml:space="preserve"><tspan
         y="347.00504"
         x="391.07144"
         id="tspan5041"
         sodipodi:role="line" /></text>
    <text
       sodipodi:linespacing="3.9999999%"
       id="text5043"
       y="445.93362"
       x="291.42856"
       style="font-size:6px;font-style:normal;font-weight:normal;line-height:3.99999991%;letter-spacing:0px;word-spacing:0px;fill:#000000;fill-opacity:1;stroke:none;font-family:Sans"
       xml:space="preserve"><tspan
         y="445.93362"
         x="291.42856"
         id="tspan5045"
         sodipodi:role="line">x</tspan></text>
    <text
       sodipodi:linespacing="3.9999999%"
       id="text5047"
       y="446.78696"
       x="428.65192"
       style="font-size:6px;font-style:normal;font-weight:normal;line-height:3.99999991%;letter-spacing:0px;word-spacing:0px;fill:#000000;fill-opacity:1;stroke:none;font-family:Sans"
       xml:space="preserve"><tspan
         y="446.78696"
         x="428.65192"
         id="tspan5049"
         sodipodi:role="line">y</tspan></text>
    <text
       sodipodi:linespacing="3.9999999%"
       id="text5051"
       y="449.14792"
       x="327.5"
       style="font-size:6px;font-style:normal;font-weight:normal;line-height:3.99999991%;letter-spacing:0px;word-spacing:0px;fill:#000000;fill-opacity:1;stroke:none;font-family:Sans"
       xml:space="preserve"><tspan
         y="449.14792"
         x="327.5"
         id="tspan5053"
         sodipodi:role="line">Ecuador</tspan></text>
    <text
       sodipodi:linespacing="3.9999999%"
       id="text5055"
       y="429.86218"
       x="350.71426"
       style="font-size:6px;font-style:normal;font-weight:normal;line-height:3.99999991%;letter-spacing:0px;word-spacing:0px;fill:#000000;fill-opacity:1;stroke:none;font-family:Sans"
       xml:space="preserve"><tspan
         style="font-size:9px"
         y="429.86218"
         x="350.71426"
         id="tspan5057"
         sodipodi:role="line">λ</tspan></text>
    <text
       sodipodi:linespacing="3.9999999%"
       id="text5059"
       y="401.64789"
       x="388.57144"
       style="font-size:9px;font-style:normal;font-weight:normal;line-height:3.99999991%;letter-spacing:0px;word-spacing:0px;fill:#000000;fill-opacity:1;stroke:none;font-family:Sans"
       xml:space="preserve"><tspan
         y="401.64789"
         x="388.57144"
         id="tspan5061"
         sodipodi:role="line" /></text>
    <text
       sodipodi:linespacing="3.9999999%"
       id="text5063"
       y="405.21933"
       x="386.42856"
       style="font-size:6px;font-style:normal;font-weight:normal;line-height:3.99999991%;letter-spacing:0px;word-spacing:0px;fill:#000000;fill-opacity:1;stroke:none;font-family:Sans"
       xml:space="preserve"><tspan
         style="font-size:9px"
         y="405.21933"
         x="386.42856"
         id="tspan5065"
         sodipodi:role="line">φ</tspan></text>
    <path
       inkscape:connector-curvature="0"
       id="path5067"
       d="m 348.4978,442.40693 c -11.29541,-0.89845 -17.49444,-1.71088 -25.54763,-3.34816 -5.34323,-1.08633 -16.36028,-4.07605 -16.85941,-4.57517 -0.15454,-0.15455 6.27025,-4.04761 14.27731,-8.65126 10.75669,-6.18454 14.81477,-8.34661 15.54045,-8.27963 0.88235,0.0814 1.15148,-0.19082 1.03352,-1.04553 -0.029,-0.21016 21.55272,-12.79512 21.94213,-12.79512 0.0821,0 0.14935,4.01786 0.14935,8.92858 l 0,8.92857 -1.07143,0 c -0.83334,0 -1.07143,0.15873 -1.07143,0.71428 0,0.55556 0.23809,0.71429 1.07143,0.71429 l 1.07143,0 0,9.82143 0,9.82143 -4.55358,-0.06 c -2.50446,-0.033 -5.19642,-0.11117 -5.98214,-0.17367 z m 3.7922,-13.69487 c 0.2354,-0.78571 0.53784,-1.42857 0.67209,-1.42857 0.13424,0 0.43668,0.64286 0.67209,1.42857 0.24532,0.81884 0.65054,1.42858 0.94939,1.42858 0.73928,0 0.66466,-0.47728 -0.59747,-3.82131 -0.8453,-2.23967 -1.28,-2.96441 -1.77805,-2.96441 -0.57125,0 -0.60564,0.11761 -0.25767,0.88131 0.32473,0.71271 0.25494,1.28339 -0.3648,2.9831 -0.9049,2.48178 -0.94176,2.92131 -0.24497,2.92131 0.29884,0 0.70406,-0.60974 0.94939,-1.42858 l 0,0 z m 3.88637,-6.38154 c 0,-0.51451 -0.3459,-0.71366 -1.51095,-0.86992 -0.97798,-0.13118 -1.60594,-0.0533 -1.78025,0.22083 -0.46419,0.73 -0.31465,0.90968 0.88049,1.05799 2.31254,0.28699 2.41071,0.27034 2.41071,-0.4089 z m -3.92857,-0.56216 c 0,-0.81455 -2.94846,-1.27534 -3.40754,-0.53253 -0.33487,0.54182 -0.002,0.76823 1.5286,1.04095 1.51568,0.26999 1.87894,0.1717 1.87894,-0.50842 z m -3.92857,-0.74218 c 0,-0.54431 -2.64755,-1.41438 -3.22253,-1.05902 -0.81871,0.50599 -0.27083,1.21928 1.16896,1.52188 1.68806,0.35477 2.05357,0.27239 2.05357,-0.46286 z m -3.99571,-0.98345 c 0.0785,-0.4047 -0.33615,-0.70854 -1.40333,-1.02827 -1.44836,-0.43394 -1.75227,-0.33072 -1.73847,0.59046 0.006,0.38818 2.09307,1.24896 2.67322,1.10244 0.19643,-0.0496 0.40729,-0.34869 0.46858,-0.66463 z m -3.72492,-1.17128 c 0.28077,-0.73167 -2.64735,-2.14145 -3.06932,-1.47776 -0.45705,0.71886 -0.32419,0.9405 0.87924,1.46679 1.53746,0.67236 1.93552,0.67436 2.19008,0.011 l 0,0 z"
       style="fill:#ffccaa;stroke:none" />
    <path
       inkscape:connector-curvature="0"
       id="path5069"
       d="m 361.17637,432.81921 0,-9.82143 1.42857,0 c 1.19048,0 1.42858,-0.11905 1.42858,-0.71429 0,-0.59523 -0.2381,-0.71428 -1.42858,-0.71428 l -1.42857,0 0,-8.41394 c 0,-5.10198 0.13087,-8.33305 0.33247,-8.20846 0.18285,0.11301 0.43341,0.0421 0.55679,-0.15749 0.12338,-0.19963 0.39523,-0.36297 0.60412,-0.36297 0.24094,0 0.21863,0.1942 -0.061,0.53117 -0.48094,0.57949 -0.25443,1.61169 0.35367,1.61169 0.20892,0 0.49521,-0.31147 0.63621,-0.69216 0.23046,-0.62226 1.27246,-0.10835 10.31895,5.08929 9.87711,5.67487 10.06474,5.80397 10.17857,7.00383 0.13398,1.41227 0.89773,1.89253 1.07057,0.67319 0.0643,-0.45328 0.21356,-0.82415 0.33179,-0.82415 0.11823,0 2.58037,1.35339 5.47141,3.00754 4.00061,2.289 5.12248,3.0825 4.69575,3.32131 -0.30838,0.17258 -0.5607,0.46651 -0.5607,0.65318 0,0.54686 1.36494,0.38929 1.49168,-0.1722 0.0811,-0.35924 2.75409,1.0128 8.97524,4.60692 l 8.85978,5.11852 -2.25264,0.74958 c -5.78369,1.92456 -17.94026,4.84842 -18.56164,4.46439 -0.18118,-0.11198 -0.52327,-0.05 -0.7602,0.13778 -1.20165,0.95224 -20.11691,2.93441 -28.00218,2.93441 l -3.67861,0 0,-9.82143 z m 31.69654,5.98233 c 0.19527,-0.58648 -0.92375,-1.00512 -1.40371,-0.52516 -0.2054,0.2054 -0.25997,0.55706 -0.12127,0.78148 0.31556,0.51058 1.32619,0.34071 1.52498,-0.25632 l 0,0 z m 1.80769,-0.35323 c -0.17929,-0.93098 -1.36137,-1.0348 -1.36137,-0.11958 0,0.51111 0.22937,0.74048 0.74047,0.74048 0.51111,0 0.70344,-0.19233 0.6209,-0.6209 l 0,0 z m -3.31599,-0.82332 c 0.12672,-0.20503 0.0345,-0.6088 -0.20488,-0.89726 -0.33255,-0.4007 -0.55155,-0.42797 -0.928,-0.11554 -0.37268,0.30929 -0.39399,0.52791 -0.0875,0.89726 0.48429,0.58353 0.90641,0.6235 1.22034,0.11554 z m 3.74033,-1.05578 c 0,-0.47619 -0.23809,-0.71429 -0.71428,-0.71429 -0.47619,0 -0.71429,0.2381 -0.71429,0.71429 0,0.47619 0.2381,0.71428 0.71429,0.71428 0.47619,0 0.71428,-0.23809 0.71428,-0.71428 z m -5.11994,-0.55972 c 0.29767,-0.7757 -0.45801,-1.50519 -0.99891,-0.96429 -0.45715,0.45716 -0.17394,1.52401 0.40457,1.52401 0.20876,0 0.47621,-0.25188 0.59434,-0.55972 z m -1.46672,-2.25144 c -0.76652,-0.76651 -1.61437,0.002 -0.92224,0.83614 0.35968,0.43339 0.57192,0.46304 0.96707,0.1351 0.43511,-0.36111 0.42881,-0.4976 -0.0448,-0.97124 l 0,0 z m 6.76524,0.6683 c 0,-0.28926 -0.28125,-0.5801 -0.625,-0.6463 -0.43852,-0.0845 -0.625,0.10839 -0.625,0.6463 0,0.53791 0.18648,0.73075 0.625,0.6463 0.34375,-0.0662 0.625,-0.35704 0.625,-0.6463 z m -7.83597,-2.10858 c -0.30665,-0.49619 -1.15756,-0.50705 -1.45942,-0.0186 -0.12672,0.20503 -0.0295,0.61488 0.2161,0.91078 0.39064,0.47069 0.51147,0.47302 0.96586,0.0186 0.28566,-0.28566 0.41051,-0.69551 0.27746,-0.91079 l 0,10e-6 z m 8.01454,0.88779 c 0,-0.0822 0.0976,-0.40358 0.21678,-0.71429 0.1554,-0.40498 0.004,-0.56492 -0.53572,-0.56492 -0.71948,0 -1.0168,0.68808 -0.5144,1.19048 0.26309,0.26308 0.83334,0.3238 0.83334,0.0887 z m -9.44506,-1.66747 c 0.36805,-0.59551 -0.45971,-1.2784 -0.9524,-0.78572 -0.41211,0.41212 -0.15418,1.17398 0.39746,1.17398 0.17324,0 0.42297,-0.17472 0.55494,-0.38826 z m 9.8022,-1.04031 c 0,-0.39683 -0.2381,-0.71429 -0.53571,-0.71429 -0.29465,0 -0.53572,0.0672 -0.53572,0.14937 0,0.0821 -0.0975,0.40357 -0.21678,0.71428 -0.15541,0.40498 -0.004,0.56492 0.53571,0.56492 0.5144,0 0.7525,-0.226 0.7525,-0.71428 z m -11.18859,-0.38284 c 0.52793,-0.52793 -0.14134,-1.87497 -1.1736,-2.36212 -1.36252,-0.64301 -1.65764,0.16875 -0.56101,1.54315 1.05439,1.32145 1.17513,1.37845 1.73461,0.81897 l 0,0 z m 11.54573,-1.40288 c 0,-0.47619 -0.23809,-0.71428 -0.71428,-0.71428 -0.7816,0 -0.98448,0.90288 -0.26786,1.19204 0.81108,0.32728 0.98214,0.24407 0.98214,-0.47776 z m -13.92857,-1.98141 c 0,-0.7221 -0.68065,-0.9911 -1.27005,-0.50195 -0.38563,0.32005 -0.42185,0.55893 -0.13681,0.90238 0.45808,0.55196 1.40686,0.28191 1.40686,-0.40043 z m 2.43028,-1.14359 c -0.0784,-1.22146 -0.25884,-1.69642 -0.64456,-1.69642 -0.38573,0 -0.5662,0.47496 -0.64457,1.69642 -0.0977,1.52211 -0.0314,1.69643 0.64457,1.69643 0.676,0 0.74223,-0.17432 0.64456,-1.69643 z m 11.85544,0.98215 c 0,-0.47619 -0.2381,-0.71429 -0.71429,-0.71429 -0.47619,0 -0.71429,0.2381 -0.71429,0.71429 0,0.47619 0.2381,0.71428 0.71429,0.71428 0.47619,0 0.71429,-0.23809 0.71429,-0.71428 z m -15.87239,-1.73973 c -0.76651,-0.76652 -1.61436,0.002 -0.92224,0.83614 0.35969,0.43339 0.57193,0.46304 0.96708,0.1351 0.43511,-0.36111 0.42881,-0.4976 -0.0448,-0.97124 l 0,0 z m -1.00251,-1.02794 c 0.19527,-0.58648 -0.92374,-1.00512 -1.40371,-0.52516 -0.20539,0.2054 -0.25996,0.55706 -0.12126,0.78148 0.31555,0.51058 1.32618,0.34071 1.52497,-0.25632 z m 5.44632,-2.23233 c 0,-1.54762 -0.0952,-1.78572 -0.71428,-1.78572 -0.61905,0 -0.71429,0.2381 -0.71429,1.78572 0,1.54762 0.0952,1.78571 0.71429,1.78571 0.61905,0 0.71428,-0.23809 0.71428,-1.78571 z m -17.14285,0.32118 c 0,-0.4668 -0.25059,-0.6768 -0.80357,-0.67345 -1.43416,0.009 -2.41072,0.4225 -2.41072,1.0215 0,0.47526 0.30352,0.56177 1.60714,0.45809 1.29578,-0.10305 1.60715,-0.25923 1.60715,-0.80614 l 0,0 z m 10.18824,0.7346 c 0.12671,-0.20503 0.0345,-0.6088 -0.20488,-0.89726 -0.33256,-0.4007 -0.55155,-0.42797 -0.92801,-0.11554 -0.37268,0.30929 -0.39399,0.52791 -0.0875,0.89726 0.48429,0.58353 0.90641,0.6235 1.22035,0.11554 z m -5.98341,-0.8595 c 0.0537,-0.0517 -0.009,-0.37107 -0.13854,-0.70965 -0.16083,-0.41912 -0.47699,-0.55099 -0.99055,-0.41314 -0.41487,0.11136 -1.11592,0.20466 -1.55789,0.20735 -0.57832,0.004 -0.80357,0.21646 -0.80357,0.75971 0,0.69785 0.12806,0.73577 1.69643,0.50231 0.93304,-0.1389 1.74039,-0.29486 1.79412,-0.34658 z m 4.64992,-0.86768 c 0.19472,-0.58417 -1.92349,-2.675 -2.40718,-2.37606 -0.2173,0.1343 -0.35065,0.51331 -0.29633,0.84225 0.0639,0.38719 -0.18458,0.63831 -0.70481,0.71219 -0.49902,0.0709 -0.80358,0.36183 -0.80358,0.76769 0,0.56745 0.2683,0.64169 2.03607,0.56339 1.16702,-0.0517 2.09572,-0.26914 2.17583,-0.50946 z m -2.58357,-3.58004 c -0.30666,-0.49619 -1.15757,-0.50705 -1.45942,-0.0186 -0.12672,0.20503 -0.0295,0.61488 0.2161,0.91078 0.39064,0.47069 0.51146,0.47302 0.96586,0.0186 0.28565,-0.28566 0.41051,-0.69551 0.27746,-0.91079 l 0,10e-6 z m -1.43052,-0.77968 c 0.36804,-0.59551 -0.45972,-1.2784 -0.9524,-0.78572 -0.41212,0.41212 -0.15419,1.17398 0.39745,1.17398 0.17324,0 0.42297,-0.17472 0.55495,-0.38826 z m -1.30856,-1.52864 c 0.30653,-0.36935 0.28522,-0.58797 -0.0875,-0.89726 -0.37645,-0.31243 -0.59545,-0.28516 -0.928,0.11554 -0.43166,0.52012 -0.24398,1.27005 0.31785,1.27005 0.16078,0 0.47471,-0.21975 0.69761,-0.48833 l 0,0 z m -1.0321,-1.62131 c 0,-0.13613 -0.18904,-0.43654 -0.42008,-0.66758 -0.60746,-0.60746 -1.53368,0.18012 -0.98679,0.83909 0.37621,0.4533 1.40687,0.32766 1.40687,-0.17151 z m -1.42857,-1.65749 c 0,-0.7221 -0.68065,-0.9911 -1.27005,-0.50195 -0.38564,0.32005 -0.42186,0.55893 -0.13682,0.90238 0.45809,0.55196 1.40687,0.28191 1.40687,-0.40043 z m -1.27501,-1.1924 c 0.32464,-0.52529 -0.83476,-1.28785 -1.28044,-0.84217 -0.21028,0.21028 -0.27434,0.55704 -0.14236,0.77058 0.28928,0.46807 1.15096,0.51142 1.4228,0.0716 z m -1.31418,-1.73671 c 0.19528,-0.58648 -0.92374,-1.00512 -1.4037,-0.52516 -0.2054,0.2054 -0.25997,0.55706 -0.12127,0.78148 0.31556,0.51058 1.32619,0.34071 1.52497,-0.25632 z m -1.50829,-1.17655 c 0.12672,-0.20503 0.0345,-0.6088 -0.20488,-0.89726 -0.33255,-0.4007 -0.55155,-0.42797 -0.92801,-0.11554 -0.37267,0.30929 -0.39398,0.52791 -0.0874,0.89726 0.48429,0.58353 0.90641,0.6235 1.22034,0.11554 z"
       style="fill:#ffccaa;stroke:none" />
    <path
       inkscape:connector-curvature="0"
       id="path5073"
       d="m 298.85494,431.78716 c -13.34176,-5.66514 -22.17553,-12.65471 -26.45521,-20.93224 -0.96405,-1.86462 -1.0227,-2.24773 -1.15605,-7.55063 -0.16847,-6.70026 0.17742,-8.2342 2.74293,-12.16417 3.66268,-5.61067 10.67062,-11.28718 19.27634,-15.61404 3.67165,-1.84607 9.69914,-4.34833 9.69914,-4.02652 0,0.13912 -0.16276,0.81437 -0.36169,1.50058 -0.52202,1.80071 -2.02902,10.94558 -2.55976,15.53335 -0.59951,5.18213 -0.60421,21.98694 -0.008,27.5 0.49016,4.53012 1.96264,13.43377 2.56889,15.53336 0.43064,1.49139 0.44663,1.79634 0.0924,1.76244 -0.14732,-0.0141 -1.875,-0.70806 -3.83929,-1.54213 l 0,0 z"
       style="fill:#ffccaa;stroke:none" />
    <path
       inkscape:connector-curvature="0"
       id="path5075"
       d="m 303.7437,430.23345 c -3.61898,-16.56425 -3.94301,-33.94966 -0.95025,-50.98567 0.4831,-2.75 1.08769,-5.79145 1.34353,-6.75877 l 0.46518,-1.75877 3.01925,-1.03039 c 7.76648,-2.65051 18.9096,-5.04009 29.44782,-6.31492 5.18474,-0.62721 17.00065,-1.4552 20.80357,-1.45779 l 1.16072,-7.9e-4 0,20.13903 0,20.13903 -26.51786,15.27826 c -14.58482,8.40305 -26.85368,15.49386 -27.26413,15.75736 -0.7246,0.46518 -0.76839,0.37786 -1.50783,-3.00658 z"
       style="fill:#aaffaa;stroke:none" />
    <path
       inkscape:connector-curvature="0"
       id="path5077"
       d="m 305.10494,368.75181 c 0,-0.15341 0.58038,-2.1135 1.28972,-4.35576 6.13398,-19.38966 16.79154,-35.03412 29.79237,-43.73284 6.52233,-4.36403 12.63559,-6.59284 18.82863,-6.86467 l 4.01786,-0.17636 0,23.4121 0,23.4121 -1.875,0.1892 c -1.03125,0.10406 -4.44643,0.27601 -7.58929,0.3821 -13.46173,0.45445 -31.56866,3.57374 -42.41071,7.30611 -1.12947,0.38882 -2.05358,0.58143 -2.05358,0.42802 z m 12.52348,-11.48088 c 0.39614,-0.21201 0.69081,-0.7452 0.69081,-1.25 0,-0.74001 -0.17075,-0.88029 -1.07143,-0.88029 -0.58928,0 -1.07143,0.16071 -1.07143,0.35714 0,0.19643 0.35357,0.35714 0.78572,0.35714 0.56469,0 0.67674,0.10897 0.39833,0.38738 -0.71351,0.71351 -2.06704,0.2332 -2.18425,-0.77509 -0.15535,-1.33642 0.75931,-2.00477 1.9047,-1.39177 1.0308,0.55167 1.53676,0.24793 0.88838,-0.53331 -0.69939,-0.84272 -2.71922,-0.69367 -3.37977,0.2494 -1.55209,2.21592 0.66235,4.75131 3.03894,3.4794 z m 2.11938,-0.88029 c 0,-0.87302 0.16157,-1.25 0.53572,-1.25 0.32597,0 0.53571,0.33244 0.53571,0.84912 0,1.14388 0.84581,1.78494 1.97961,1.50037 0.82819,-0.20786 0.90682,-0.37679 0.8082,-1.73631 l -0.10924,-1.50604 -2.41071,-0.0763 -2.41072,-0.0763 0,1.77275 c 0,1.33768 0.13148,1.77275 0.53572,1.77275 0.37415,0 0.53571,-0.37699 0.53571,-1.25 z m 7.12493,0.73588 c 0.66623,-0.80275 0.31407,-2.47002 -0.60707,-2.87414 -0.71027,-0.31162 -0.80357,-0.61226 -0.80357,-2.58929 0,-1.75012 0.11655,-2.23674 0.53571,-2.23674 0.40476,0 0.53572,-0.43651 0.53572,-1.78571 l 0,-1.78572 -1.42858,0 -1.42857,0 0,1.78572 c 0,0.98214 0.16072,1.78571 0.35715,1.78571 0.19642,0 0.35714,-0.5625 0.35714,-1.25 0,-0.87302 0.16156,-1.25 0.53571,-1.25 0.37415,0 0.53572,0.37698 0.53572,1.25 0,0.6875 -0.16072,1.25 -0.35715,1.25 -0.19642,0 -0.35714,0.24107 -0.35714,0.53571 0,0.29465 -0.28928,0.53572 -0.64286,0.53572 -0.90968,0 -1.5,0.70275 -1.5,1.78571 0,1.11022 0.59444,1.78572 1.57143,1.78572 0.55556,0 0.61905,0.0952 0.28572,0.42857 -0.23572,0.23571 -0.42857,0.84643 -0.42857,1.35714 0,0.51072 0.19285,1.12143 0.42857,1.35714 0.58577,0.58577 1.89197,0.53942 2.41064,-0.0855 l 0,0 z m 1.51423,-0.79756 c 0.15921,-1.88407 1.0037,-2.00746 1.0037,-0.14666 0,1.0582 0.14699,1.45834 0.53571,1.45834 0.37171,0 0.53572,-0.37374 0.53572,-1.22079 0,-1.79502 -0.32138,-2.35064 -1.35964,-2.35064 -0.72028,0 -0.83084,-0.0952 -0.49751,-0.42857 0.23572,-0.23572 0.42858,-0.84643 0.42858,-1.35715 0,-1.1431 -0.59954,-1.78571 -1.66601,-1.78571 -1.61898,0 -2.02599,2.90118 -0.47602,3.39312 0.58615,0.18604 0.71345,0.54079 0.71345,1.98809 0,2.03997 0.61762,2.39534 0.78202,0.44997 l 0,0 z m 4.09978,0.32953 0.25256,-0.98214 0.21678,0.89286 c 0.32558,1.34094 1.1352,1.0753 1.63276,-0.53572 l 0.44121,-1.42857 0.0374,1.51786 c 0.027,1.09447 0.18688,1.51786 0.57316,1.51786 0.40476,0 0.53571,-0.43651 0.53571,-1.78572 0,-1.73661 -0.0288,-1.78571 -1.04659,-1.78571 -0.80042,0 -1.08377,0.189 -1.20466,0.80357 l -0.15807,0.80357 -0.26556,-0.80357 c -0.14606,-0.44197 -0.46915,-0.80357 -0.71797,-0.80357 -0.24883,0 -0.57192,0.3616 -0.71798,0.80357 l -0.26556,0.80357 -0.15807,-0.80357 c -0.0869,-0.44197 -0.39103,-0.80357 -0.67575,-0.80357 -0.38427,0 -0.45643,0.25312 -0.28001,0.98214 0.66096,2.73133 1.35274,3.34879 1.80059,1.60714 z m 6.47535,0.55357 c 0.33333,-0.33333 0.42857,-0.33333 0.42857,0 0,0.23572 0.23137,0.42858 0.51415,0.42858 0.33634,0 0.55249,-0.4632 0.625,-1.33929 0.061,-0.73661 0.27156,-1.33929 0.46799,-1.33929 0.19643,0 0.40702,0.60268 0.46799,1.33929 0.16403,1.98194 0.84062,1.6427 0.71229,-0.35714 -0.0929,-1.44768 -0.22668,-1.71317 -0.91242,-1.81056 -0.44197,-0.0628 -0.80357,-0.34401 -0.80357,-0.625 0,-0.28098 -0.24107,-0.51087 -0.53572,-0.51087 -0.34,0 -0.53571,0.34216 -0.53571,0.93658 0,0.77618 -0.0884,0.86324 -0.51606,0.5083 -0.28383,-0.23555 -0.88651,-0.37577 -1.33928,-0.31158 -0.67439,0.0956 -0.84384,0.36841 -0.93723,1.50892 -0.11582,1.41442 0.27886,1.98427 1.38185,1.99517 0.30447,0.003 0.74643,-0.18739 0.98215,-0.42311 l 0,0 z m -2.78572,-3.85714 c 0,-0.19643 -0.24107,-0.35714 -0.53571,-0.35714 -0.29464,0 -0.53572,0.16071 -0.53572,0.35714 0,0.19643 0.24108,0.35714 0.53572,0.35714 0.29464,0 0.53571,-0.16071 0.53571,-0.35714 z m -19.96354,-5.08928 0.0365,-1.16072 0.37235,1.16072 c 0.45518,1.41891 1.15864,1.49552 1.63963,0.17857 l 0.35871,-0.98215 0.0282,0.98215 c 0.0179,0.62239 0.22442,0.98214 0.56391,0.98214 0.42124,0 0.53571,-0.49603 0.53571,-2.32143 0,-1.84654 -0.11188,-2.32143 -0.54692,-2.32143 -0.30081,0 -0.61747,0.2009 -0.70369,0.44643 -0.0862,0.24554 -0.34141,0.92857 -0.56708,1.51786 l -0.41031,1.07143 -0.5229,-1.51786 c -0.37065,-1.07588 -0.72223,-1.51786 -1.20743,-1.51786 -0.6044,0 -0.68453,0.27174 -0.68453,2.32143 0,1.8254 0.11447,2.32143 0.53572,2.32143 0.35882,0 0.54775,-0.38327 0.57217,-1.16071 z m 6.67783,0.73214 c 0.23571,-0.23572 0.42857,-0.84643 0.42857,-1.35714 0,-1.12304 -0.59641,-1.78572 -1.60714,-1.78572 -1.01074,0 -1.60715,0.66268 -1.60715,1.78572 0,1.12303 0.59641,1.78571 1.60715,1.78571 0.4125,0 0.94285,-0.19286 1.17857,-0.42857 z m 6.85714,-1.89286 c 0,-1.30952 -0.15568,-2.32143 -0.35714,-2.32143 -0.19643,0 -0.35714,0.2304 -0.35714,0.512 0,0.29304 -0.42,0.56031 -0.98215,0.625 -0.82298,0.0947 -1.00056,0.30488 -1.09579,1.29705 -0.14221,1.48149 0.43882,2.20881 1.76452,2.20881 1.02677,0 1.0277,-0.002 1.0277,-2.32143 z m 1.42857,0.53572 c 0,-1.34921 -0.13095,-1.78572 -0.53571,-1.78572 -0.40476,0 -0.53572,0.43651 -0.53572,1.78572 0,1.3492 0.13096,1.78571 0.53572,1.78571 0.40476,0 0.53571,-0.43651 0.53571,-1.78571 z m 4.7114,0.46031 c 0.15887,-1.87409 1.00289,-1.98596 1.00289,-0.13293 0,1.0582 0.14699,1.45833 0.53571,1.45833 0.29465,0 0.53572,-0.25255 0.53572,-0.56122 0,-0.51021 0.051,-0.51021 0.56122,0 1.14208,1.14208 2.65306,0.44471 2.65306,-1.22449 0,-0.51072 -0.19285,-1.12143 -0.42857,-1.35715 -0.63114,-0.63114 -1.98037,-0.5212 -2.41082,0.19643 -0.35704,0.59524 -0.39275,0.59524 -0.74978,0 -0.24116,-0.40204 -0.81448,-0.625 -1.60715,-0.625 -1.22443,0 -1.23259,0.0108 -1.28589,1.69643 l -0.0536,1.69643 -0.21422,-1.60714 c -0.20764,-1.55784 -0.25256,-1.60715 -1.46421,-1.60715 -1.17592,0 -1.25453,0.0741 -1.32642,1.25 -0.11728,1.91849 0.0363,2.06637 2.17303,2.0919 l 1.96905,0.0235 0.11002,-1.29796 0,-1e-5 z m -9.35425,-2.96031 c 0,-0.19643 -0.24108,-0.35715 -0.53572,-0.35715 -0.29464,0 -0.53571,0.16072 -0.53571,0.35715 0,0.19642 0.24107,0.35714 0.53571,0.35714 0.29464,0 0.53572,-0.16072 0.53572,-0.35714 z m 4.64285,0 c 0,-0.19643 -0.24107,-0.35715 -0.53571,-0.35715 -0.29464,0 -0.53572,0.16072 -0.53572,0.35715 0,0.19642 0.24108,0.35714 0.53572,0.35714 0.29464,0 0.53571,-0.16072 0.53571,-0.35714 z"
       style="fill:#aaffaa;stroke:none" />
    <path
       inkscape:connector-curvature="0"
       id="path5079"
       d="m 352.78352,490.84811 c -4.5239,-0.4831 -11.52343,-3.34521 -16.70262,-6.82972 -10.97313,-7.3826 -20.6571,-20.20483 -26.7296,-35.39178 -1.77,-4.42664 -4.36527,-12.41467 -4.11484,-12.66511 0.0992,-0.0992 1.43605,0.22798 2.97083,0.72703 12.90201,4.19517 33.40511,7.38068 47.50476,7.38068 l 3.32147,0 0,23.57143 0,23.57143 -1.875,-0.0485 c -1.03125,-0.0267 -3,-0.16863 -4.375,-0.31546 z m -21.42858,-41.95747 c 0,-0.19643 -0.60267,-0.40703 -1.33928,-0.46799 -1.79407,-0.14849 -1.87172,-1.13916 -0.0893,-1.13916 0.6875,0 1.25,-0.16071 1.25,-0.35714 0,-0.19643 -0.5625,-0.35714 -1.25,-0.35714 -0.87301,0 -1.25,-0.16157 -1.25,-0.53572 0,-0.37415 0.37699,-0.53571 1.25,-0.53571 0.6875,0 1.25,-0.16072 1.25,-0.35714 0,-0.19643 -0.72321,-0.35715 -1.60714,-0.35715 l -1.60714,0 0,2.341 0,2.341 1.69643,-0.10886 c 0.93303,-0.0599 1.69642,-0.26957 1.69642,-0.46599 z m 2.92157,-0.0391 c 0.20004,-0.5213 0.24992,-0.52236 0.53592,-0.0113 0.20228,0.36145 0.75946,0.54681 1.55393,0.51694 l 1.23858,-0.0466 0,-1.7576 c 0,-2.05461 -0.78065,-2.2303 -1.07142,-0.24113 -0.23833,1.63036 -0.86511,1.55687 -1.00371,-0.11767 -0.12725,-1.53753 -0.7806,-1.83485 -0.7848,-0.35715 -0.003,1.1649 -1.66312,2.24563 -2.02011,1.31532 -0.10801,-0.28146 -0.0969,-0.77092 0.0246,-1.08768 0.18064,-0.47075 0.31965,-0.49407 0.76113,-0.12768 0.64183,0.53267 1.05395,0.2435 0.75675,-0.53098 -0.11631,-0.30312 -0.62175,-0.55112 -1.1232,-0.55112 -1.21585,0 -1.90297,1.39587 -1.31854,2.67857 0.47239,1.03677 2.09427,1.24725 2.45084,0.31805 l 0,0 z m 6.66162,-0.80617 c -0.27721,-2.0006 -0.39109,-2.19045 -1.31396,-2.19045 -1.044,0 -1.51168,0.55984 -1.59627,1.91079 -0.0892,1.4255 0.11579,1.61829 1.69786,1.59646 l 1.39217,-0.0192 -0.1798,-1.29758 0,0 z m 3.45779,0.39884 0.005,-0.98215 0.45011,0.89286 c 0.60121,1.19261 1.81432,1.3349 2.54059,0.298 l 0.57022,-0.81407 0,0.79375 c 0,0.46746 0.22021,0.79375 0.53571,0.79375 0.37415,0 0.53572,-0.37698 0.53572,-1.25 0,-0.87302 0.16156,-1.25 0.53571,-1.25 0.29464,0 0.53571,-0.24107 0.53571,-0.53571 0,-0.35715 -0.35714,-0.53572 -1.07142,-0.53572 -0.86631,0 -1.07577,0.15384 -1.09407,0.80357 l -0.0226,0.80357 -0.32299,-0.80357 c -0.23644,-0.58825 -0.61626,-0.80357 -1.41744,-0.80357 -0.80118,0 -1.18099,0.21532 -1.41744,0.80357 -0.2803,0.69735 -0.32599,0.62654 -0.34563,-0.53571 -0.0159,-0.94232 -0.18143,-1.33929 -0.55836,-1.33929 -0.29464,0 -0.53571,0.24107 -0.53571,0.53572 0,0.29464 -0.28929,0.53571 -0.64286,0.53571 -0.87265,0 -1.5,0.69136 -1.5,1.65306 0,1.10142 0.92341,1.91837 2.16837,1.91837 0.90163,0 1.04664,-0.13549 1.05118,-0.98214 z"
       style="fill:#aaffaa;stroke:none" />
    <path
       inkscape:connector-curvature="0"
       id="path5081"
       d="m 359.64286,402.71932 -65.73555,63.64606"
       style="fill:#c83737;stroke:#e20000;stroke-width:1.06501591px;stroke-linecap:butt;stroke-linejoin:miter;stroke-opacity:1;marker-end:url(#Arrow2LstartA)" />
    <text
       xml:space="preserve"
       style="font-size:6px;font-style:normal;font-weight:normal;line-height:3.99999991%;letter-spacing:0px;word-spacing:0px;fill:#000000;fill-opacity:1;stroke:none;font-family:Sans"
       x="273.57144"
       y="484.14789"
       id="text5590"
       sodipodi:linespacing="3.9999999%"><tspan
         sodipodi:role="line"
         id="tspan5592"
         x="273.57144"
         y="484.14789">r = 6371</tspan></text>
  </g>
</svg>
